G04 EAGLE Gerber RS-274X export*
G75*
%MOMM*%
%FSLAX34Y34*%
%LPD*%
%INBottom Copper*%
%IPPOS*%
%AMOC8*
5,1,8,0,0,1.08239X$1,22.5*%
G01*
%ADD10C,1.350000*%
%ADD11C,1.879600*%
%ADD12C,0.300000*%
%ADD13C,0.550000*%
%ADD14C,0.500000*%

G36*
X125785Y5005D02*
X125785Y5005D01*
X125821Y5002D01*
X125957Y5025D01*
X126093Y5041D01*
X126127Y5053D01*
X126162Y5058D01*
X126289Y5111D01*
X126419Y5158D01*
X126448Y5177D01*
X126481Y5191D01*
X126593Y5272D01*
X126708Y5347D01*
X126733Y5373D01*
X126761Y5393D01*
X126852Y5497D01*
X126855Y5501D01*
X132000Y5501D01*
X137135Y5501D01*
X137143Y5489D01*
X137247Y5398D01*
X137347Y5303D01*
X137378Y5285D01*
X137404Y5262D01*
X137527Y5198D01*
X137645Y5128D01*
X137679Y5118D01*
X137711Y5101D01*
X137844Y5067D01*
X137976Y5026D01*
X138011Y5024D01*
X138045Y5015D01*
X138250Y5001D01*
X180750Y5001D01*
X180785Y5005D01*
X180821Y5002D01*
X180957Y5025D01*
X181093Y5041D01*
X181127Y5053D01*
X181162Y5058D01*
X181289Y5111D01*
X181419Y5158D01*
X181448Y5177D01*
X181481Y5191D01*
X181593Y5272D01*
X181708Y5347D01*
X181733Y5373D01*
X181761Y5393D01*
X181852Y5497D01*
X181855Y5501D01*
X187000Y5501D01*
X192135Y5501D01*
X192143Y5489D01*
X192247Y5398D01*
X192347Y5303D01*
X192378Y5285D01*
X192404Y5262D01*
X192527Y5198D01*
X192645Y5128D01*
X192679Y5118D01*
X192711Y5101D01*
X192844Y5067D01*
X192976Y5026D01*
X193011Y5024D01*
X193045Y5015D01*
X193250Y5001D01*
X235750Y5001D01*
X235785Y5005D01*
X235821Y5002D01*
X235957Y5025D01*
X236093Y5041D01*
X236127Y5053D01*
X236162Y5058D01*
X236289Y5111D01*
X236419Y5158D01*
X236448Y5177D01*
X236481Y5191D01*
X236593Y5272D01*
X236708Y5347D01*
X236733Y5373D01*
X236761Y5393D01*
X236852Y5497D01*
X236855Y5501D01*
X242000Y5501D01*
X247135Y5501D01*
X247143Y5489D01*
X247247Y5398D01*
X247347Y5303D01*
X247378Y5285D01*
X247404Y5262D01*
X247527Y5198D01*
X247645Y5128D01*
X247679Y5118D01*
X247711Y5101D01*
X247844Y5067D01*
X247976Y5026D01*
X248011Y5024D01*
X248045Y5015D01*
X248250Y5001D01*
X279844Y5001D01*
X279878Y5005D01*
X279985Y5007D01*
X284473Y5429D01*
X284517Y5438D01*
X284561Y5440D01*
X284762Y5485D01*
X293436Y8073D01*
X293522Y8110D01*
X293612Y8138D01*
X293725Y8197D01*
X293754Y8210D01*
X293767Y8219D01*
X293793Y8233D01*
X296141Y9678D01*
X296244Y9760D01*
X296353Y9836D01*
X296380Y9867D01*
X296412Y9892D01*
X296495Y9995D01*
X296582Y10094D01*
X296602Y10130D01*
X296628Y10163D01*
X296684Y10282D01*
X296747Y10398D01*
X296758Y10438D01*
X296775Y10475D01*
X296803Y10604D01*
X296837Y10732D01*
X296839Y10773D01*
X296847Y10813D01*
X296845Y10945D01*
X296849Y11077D01*
X296841Y11118D01*
X296840Y11159D01*
X296807Y11287D01*
X296781Y11416D01*
X296764Y11454D01*
X296754Y11494D01*
X296692Y11611D01*
X296637Y11731D01*
X296612Y11764D01*
X296593Y11800D01*
X296507Y11900D01*
X296426Y12004D01*
X296394Y12030D01*
X296367Y12061D01*
X296260Y12138D01*
X296157Y12222D01*
X296120Y12239D01*
X296086Y12264D01*
X295964Y12314D01*
X295845Y12372D01*
X295791Y12386D01*
X295767Y12396D01*
X295734Y12402D01*
X295647Y12425D01*
X295614Y12432D01*
X294750Y12790D01*
X293972Y13310D01*
X293310Y13972D01*
X292790Y14750D01*
X292479Y15501D01*
X297000Y15501D01*
X302834Y15501D01*
X302882Y15482D01*
X302930Y15476D01*
X302976Y15462D01*
X303101Y15453D01*
X303225Y15437D01*
X303273Y15441D01*
X303321Y15438D01*
X303444Y15458D01*
X303569Y15471D01*
X303614Y15486D01*
X303662Y15494D01*
X303777Y15542D01*
X303896Y15583D01*
X303937Y15608D01*
X303981Y15627D01*
X304083Y15700D01*
X304189Y15767D01*
X304238Y15812D01*
X304261Y15829D01*
X304282Y15853D01*
X304340Y15906D01*
X308024Y19804D01*
X308080Y19879D01*
X308144Y19948D01*
X308212Y20056D01*
X308231Y20081D01*
X308237Y20096D01*
X308253Y20121D01*
X312557Y28085D01*
X312592Y28172D01*
X312635Y28255D01*
X312674Y28377D01*
X312685Y28406D01*
X312688Y28422D01*
X312697Y28451D01*
X314792Y37258D01*
X314797Y37302D01*
X314810Y37345D01*
X314832Y37549D01*
X314998Y42012D01*
X314997Y42031D01*
X314999Y42068D01*
X314999Y42229D01*
X314998Y42244D01*
X314999Y42272D01*
X314971Y43258D01*
X314985Y43314D01*
X314985Y43317D01*
X314986Y43319D01*
X314986Y43326D01*
X314999Y43519D01*
X314999Y70926D01*
X314998Y70935D01*
X314999Y70944D01*
X314978Y71106D01*
X314959Y71269D01*
X314956Y71278D01*
X314955Y71287D01*
X314898Y71440D01*
X314842Y71595D01*
X314837Y71602D01*
X314834Y71611D01*
X314743Y71747D01*
X314653Y71884D01*
X314646Y71891D01*
X314641Y71898D01*
X314521Y72010D01*
X314403Y72123D01*
X314395Y72128D01*
X314388Y72134D01*
X314245Y72216D01*
X314105Y72298D01*
X314096Y72301D01*
X314088Y72305D01*
X313931Y72352D01*
X313774Y72400D01*
X313765Y72401D01*
X313756Y72403D01*
X313594Y72412D01*
X313499Y72419D01*
X313499Y77000D01*
X313499Y81580D01*
X313552Y81576D01*
X313561Y81577D01*
X313571Y81576D01*
X313732Y81603D01*
X313894Y81627D01*
X313903Y81631D01*
X313912Y81632D01*
X314063Y81695D01*
X314215Y81756D01*
X314222Y81762D01*
X314231Y81765D01*
X314364Y81861D01*
X314498Y81955D01*
X314504Y81962D01*
X314511Y81967D01*
X314619Y82092D01*
X314728Y82213D01*
X314732Y82221D01*
X314738Y82228D01*
X314815Y82375D01*
X314892Y82517D01*
X314894Y82526D01*
X314899Y82535D01*
X314940Y82694D01*
X314983Y82851D01*
X314983Y82860D01*
X314985Y82869D01*
X314999Y83074D01*
X314999Y135926D01*
X314998Y135935D01*
X314999Y135944D01*
X314978Y136106D01*
X314959Y136269D01*
X314956Y136278D01*
X314955Y136287D01*
X314898Y136440D01*
X314842Y136595D01*
X314837Y136602D01*
X314834Y136611D01*
X314743Y136747D01*
X314653Y136884D01*
X314646Y136891D01*
X314641Y136898D01*
X314521Y137010D01*
X314403Y137123D01*
X314395Y137128D01*
X314388Y137134D01*
X314245Y137216D01*
X314105Y137298D01*
X314096Y137301D01*
X314088Y137305D01*
X313931Y137352D01*
X313774Y137400D01*
X313765Y137401D01*
X313756Y137403D01*
X313594Y137412D01*
X313499Y137419D01*
X313499Y142000D01*
X313499Y146580D01*
X313552Y146576D01*
X313561Y146577D01*
X313571Y146576D01*
X313732Y146603D01*
X313894Y146627D01*
X313903Y146631D01*
X313912Y146632D01*
X314063Y146695D01*
X314215Y146756D01*
X314222Y146762D01*
X314231Y146765D01*
X314364Y146861D01*
X314498Y146955D01*
X314504Y146962D01*
X314511Y146967D01*
X314619Y147092D01*
X314728Y147213D01*
X314732Y147221D01*
X314738Y147228D01*
X314815Y147375D01*
X314892Y147517D01*
X314894Y147526D01*
X314899Y147535D01*
X314940Y147695D01*
X314983Y147851D01*
X314983Y147860D01*
X314985Y147869D01*
X314999Y148074D01*
X314999Y195926D01*
X314998Y195935D01*
X314999Y195944D01*
X314978Y196106D01*
X314959Y196269D01*
X314956Y196278D01*
X314955Y196287D01*
X314898Y196440D01*
X314842Y196595D01*
X314837Y196602D01*
X314834Y196611D01*
X314743Y196747D01*
X314653Y196884D01*
X314646Y196891D01*
X314641Y196898D01*
X314521Y197010D01*
X314403Y197123D01*
X314395Y197128D01*
X314388Y197134D01*
X314245Y197216D01*
X314105Y197298D01*
X314096Y197301D01*
X314088Y197305D01*
X313931Y197352D01*
X313774Y197400D01*
X313765Y197401D01*
X313756Y197403D01*
X313594Y197412D01*
X313499Y197419D01*
X313499Y202000D01*
X313499Y206580D01*
X313552Y206576D01*
X313561Y206577D01*
X313571Y206576D01*
X313732Y206603D01*
X313894Y206627D01*
X313903Y206631D01*
X313912Y206632D01*
X314063Y206695D01*
X314215Y206756D01*
X314222Y206762D01*
X314231Y206765D01*
X314364Y206861D01*
X314498Y206955D01*
X314504Y206962D01*
X314511Y206967D01*
X314619Y207092D01*
X314728Y207213D01*
X314732Y207221D01*
X314738Y207228D01*
X314815Y207375D01*
X314892Y207517D01*
X314894Y207526D01*
X314899Y207535D01*
X314940Y207695D01*
X314983Y207851D01*
X314983Y207860D01*
X314985Y207869D01*
X314999Y208074D01*
X314999Y265926D01*
X314998Y265935D01*
X314999Y265944D01*
X314978Y266106D01*
X314959Y266269D01*
X314956Y266278D01*
X314955Y266287D01*
X314898Y266440D01*
X314842Y266595D01*
X314837Y266602D01*
X314834Y266611D01*
X314743Y266747D01*
X314653Y266884D01*
X314646Y266891D01*
X314641Y266898D01*
X314521Y267010D01*
X314403Y267123D01*
X314395Y267128D01*
X314388Y267134D01*
X314245Y267216D01*
X314105Y267298D01*
X314096Y267301D01*
X314088Y267305D01*
X313931Y267352D01*
X313774Y267400D01*
X313765Y267401D01*
X313756Y267403D01*
X313594Y267412D01*
X313499Y267419D01*
X313499Y272000D01*
X313499Y276580D01*
X313552Y276576D01*
X313561Y276577D01*
X313571Y276576D01*
X313732Y276603D01*
X313894Y276627D01*
X313903Y276631D01*
X313912Y276632D01*
X314063Y276695D01*
X314215Y276756D01*
X314222Y276762D01*
X314231Y276765D01*
X314364Y276861D01*
X314498Y276955D01*
X314504Y276962D01*
X314511Y276967D01*
X314619Y277092D01*
X314728Y277213D01*
X314732Y277221D01*
X314738Y277228D01*
X314815Y277375D01*
X314892Y277517D01*
X314894Y277526D01*
X314899Y277535D01*
X314940Y277695D01*
X314983Y277851D01*
X314983Y277860D01*
X314985Y277869D01*
X314999Y278074D01*
X314999Y325926D01*
X314998Y325935D01*
X314999Y325944D01*
X314978Y326106D01*
X314959Y326269D01*
X314956Y326278D01*
X314955Y326287D01*
X314898Y326440D01*
X314842Y326595D01*
X314837Y326602D01*
X314834Y326611D01*
X314743Y326747D01*
X314653Y326884D01*
X314646Y326891D01*
X314641Y326898D01*
X314521Y327010D01*
X314403Y327123D01*
X314395Y327128D01*
X314388Y327134D01*
X314245Y327216D01*
X314105Y327298D01*
X314096Y327301D01*
X314088Y327305D01*
X313931Y327352D01*
X313774Y327400D01*
X313765Y327401D01*
X313756Y327403D01*
X313594Y327412D01*
X313499Y327419D01*
X313499Y332000D01*
X313499Y336580D01*
X313552Y336576D01*
X313561Y336577D01*
X313571Y336576D01*
X313732Y336603D01*
X313894Y336627D01*
X313903Y336631D01*
X313912Y336632D01*
X314063Y336695D01*
X314215Y336756D01*
X314222Y336762D01*
X314231Y336765D01*
X314364Y336861D01*
X314498Y336955D01*
X314504Y336962D01*
X314511Y336967D01*
X314619Y337092D01*
X314728Y337213D01*
X314732Y337221D01*
X314738Y337228D01*
X314815Y337375D01*
X314892Y337517D01*
X314894Y337526D01*
X314899Y337535D01*
X314940Y337695D01*
X314983Y337851D01*
X314983Y337860D01*
X314985Y337869D01*
X314999Y338074D01*
X314999Y385926D01*
X314998Y385935D01*
X314999Y385944D01*
X314978Y386106D01*
X314959Y386269D01*
X314956Y386278D01*
X314955Y386287D01*
X314898Y386440D01*
X314842Y386595D01*
X314837Y386602D01*
X314834Y386611D01*
X314743Y386747D01*
X314653Y386884D01*
X314646Y386891D01*
X314641Y386898D01*
X314521Y387010D01*
X314403Y387123D01*
X314395Y387128D01*
X314388Y387134D01*
X314245Y387216D01*
X314105Y387298D01*
X314096Y387301D01*
X314088Y387305D01*
X313931Y387352D01*
X313774Y387400D01*
X313765Y387401D01*
X313756Y387403D01*
X313594Y387412D01*
X313499Y387419D01*
X313499Y392000D01*
X313499Y396580D01*
X313552Y396576D01*
X313561Y396577D01*
X313571Y396576D01*
X313732Y396603D01*
X313894Y396627D01*
X313903Y396631D01*
X313912Y396632D01*
X314063Y396695D01*
X314215Y396756D01*
X314222Y396762D01*
X314231Y396765D01*
X314364Y396861D01*
X314498Y396955D01*
X314504Y396962D01*
X314511Y396967D01*
X314619Y397092D01*
X314728Y397213D01*
X314732Y397221D01*
X314738Y397228D01*
X314815Y397375D01*
X314892Y397517D01*
X314894Y397526D01*
X314899Y397535D01*
X314940Y397695D01*
X314983Y397851D01*
X314983Y397860D01*
X314985Y397869D01*
X314999Y398074D01*
X314999Y460926D01*
X314998Y460935D01*
X314999Y460944D01*
X314978Y461106D01*
X314959Y461269D01*
X314956Y461278D01*
X314955Y461287D01*
X314898Y461440D01*
X314842Y461595D01*
X314837Y461602D01*
X314834Y461611D01*
X314743Y461747D01*
X314653Y461884D01*
X314646Y461891D01*
X314641Y461898D01*
X314521Y462010D01*
X314403Y462123D01*
X314395Y462128D01*
X314388Y462134D01*
X314245Y462216D01*
X314105Y462298D01*
X314096Y462301D01*
X314088Y462305D01*
X313931Y462352D01*
X313774Y462400D01*
X313765Y462401D01*
X313756Y462403D01*
X313594Y462412D01*
X313499Y462419D01*
X313499Y467000D01*
X313495Y467035D01*
X313498Y467070D01*
X313475Y467206D01*
X313460Y467343D01*
X313447Y467376D01*
X313442Y467411D01*
X313389Y467539D01*
X313342Y467668D01*
X313323Y467698D01*
X313309Y467731D01*
X313229Y467842D01*
X313153Y467958D01*
X313128Y467982D01*
X313107Y468011D01*
X313003Y468102D01*
X312903Y468197D01*
X312873Y468214D01*
X312846Y468238D01*
X312723Y468302D01*
X312605Y468372D01*
X312571Y468382D01*
X312540Y468399D01*
X312406Y468433D01*
X312275Y468474D01*
X312239Y468476D01*
X312205Y468485D01*
X312000Y468499D01*
X311965Y468495D01*
X311930Y468497D01*
X311929Y468497D01*
X311793Y468475D01*
X311656Y468459D01*
X311623Y468447D01*
X311588Y468441D01*
X311461Y468388D01*
X311331Y468342D01*
X311301Y468322D01*
X311269Y468309D01*
X311157Y468228D01*
X311042Y468153D01*
X311017Y468127D01*
X310988Y468106D01*
X310898Y468002D01*
X310803Y467903D01*
X310785Y467872D01*
X310762Y467845D01*
X310698Y467723D01*
X310628Y467604D01*
X310618Y467571D01*
X310601Y467539D01*
X310567Y467406D01*
X310526Y467274D01*
X310523Y467239D01*
X310515Y467204D01*
X310501Y467000D01*
X310501Y462479D01*
X309750Y462790D01*
X308972Y463310D01*
X308310Y463972D01*
X307790Y464750D01*
X307432Y465614D01*
X307274Y466410D01*
X307230Y466546D01*
X307191Y466684D01*
X307177Y466710D01*
X307167Y466739D01*
X307094Y466861D01*
X307025Y466987D01*
X307004Y467009D01*
X306989Y467035D01*
X306889Y467137D01*
X306793Y467243D01*
X306768Y467261D01*
X306747Y467282D01*
X306626Y467359D01*
X306509Y467440D01*
X306481Y467451D01*
X306455Y467468D01*
X306320Y467515D01*
X306187Y467567D01*
X306157Y467571D01*
X306129Y467581D01*
X305986Y467596D01*
X305845Y467616D01*
X305815Y467614D01*
X305785Y467617D01*
X305643Y467599D01*
X305501Y467586D01*
X305472Y467577D01*
X305442Y467573D01*
X305308Y467522D01*
X305172Y467478D01*
X305137Y467458D01*
X305118Y467451D01*
X305090Y467433D01*
X304993Y467379D01*
X298953Y463498D01*
X286493Y459839D01*
X273507Y459839D01*
X261047Y463498D01*
X254061Y467987D01*
X253955Y468039D01*
X253855Y468098D01*
X253801Y468115D01*
X253750Y468140D01*
X253636Y468166D01*
X253524Y468200D01*
X253468Y468204D01*
X253413Y468217D01*
X253296Y468216D01*
X253179Y468224D01*
X253124Y468215D01*
X253067Y468214D01*
X252954Y468187D01*
X252838Y468168D01*
X252786Y468146D01*
X252731Y468133D01*
X252627Y468080D01*
X252519Y468035D01*
X252473Y468002D01*
X252423Y467977D01*
X252333Y467901D01*
X252239Y467833D01*
X252202Y467790D01*
X252158Y467754D01*
X252089Y467660D01*
X252012Y467572D01*
X251986Y467522D01*
X251952Y467476D01*
X251906Y467369D01*
X251851Y467266D01*
X251837Y467211D01*
X251815Y467159D01*
X251794Y467044D01*
X251765Y466931D01*
X251759Y466850D01*
X251754Y466819D01*
X251755Y466790D01*
X251751Y466726D01*
X251751Y466532D01*
X251568Y465614D01*
X251210Y464750D01*
X250690Y463972D01*
X250028Y463310D01*
X249250Y462790D01*
X248499Y462479D01*
X248499Y467000D01*
X248495Y467035D01*
X248498Y467070D01*
X248475Y467206D01*
X248460Y467343D01*
X248447Y467376D01*
X248442Y467411D01*
X248389Y467539D01*
X248342Y467668D01*
X248323Y467698D01*
X248309Y467731D01*
X248229Y467842D01*
X248153Y467958D01*
X248128Y467982D01*
X248107Y468011D01*
X248106Y468011D01*
X248106Y468012D01*
X248002Y468102D01*
X247903Y468197D01*
X247872Y468215D01*
X247845Y468238D01*
X247723Y468302D01*
X247604Y468372D01*
X247571Y468382D01*
X247539Y468399D01*
X247406Y468433D01*
X247274Y468474D01*
X247239Y468477D01*
X247204Y468485D01*
X247000Y468499D01*
X242479Y468499D01*
X242790Y469250D01*
X243310Y470028D01*
X243972Y470690D01*
X244750Y471210D01*
X245614Y471568D01*
X246154Y471676D01*
X246227Y471699D01*
X246303Y471713D01*
X246391Y471752D01*
X246483Y471782D01*
X246549Y471821D01*
X246619Y471852D01*
X246696Y471910D01*
X246779Y471960D01*
X246834Y472014D01*
X246895Y472060D01*
X246957Y472135D01*
X247026Y472202D01*
X247067Y472267D01*
X247117Y472326D01*
X247160Y472412D01*
X247211Y472494D01*
X247237Y472567D01*
X247271Y472635D01*
X247293Y472729D01*
X247325Y472820D01*
X247333Y472897D01*
X247351Y472972D01*
X247351Y473069D01*
X247361Y473164D01*
X247351Y473241D01*
X247351Y473318D01*
X247329Y473411D01*
X247317Y473507D01*
X247289Y473579D01*
X247272Y473654D01*
X247229Y473741D01*
X247195Y473831D01*
X247152Y473895D01*
X247118Y473964D01*
X247011Y474106D01*
X247003Y474118D01*
X246999Y474121D01*
X246995Y474128D01*
X241618Y480333D01*
X236223Y492146D01*
X234375Y505000D01*
X236223Y517854D01*
X241618Y529667D01*
X241825Y529906D01*
X241868Y529970D01*
X241919Y530027D01*
X241965Y530112D01*
X242020Y530192D01*
X242047Y530264D01*
X242084Y530331D01*
X242109Y530424D01*
X242144Y530514D01*
X242154Y530591D01*
X242174Y530665D01*
X242178Y530761D01*
X242191Y530857D01*
X242183Y530934D01*
X242186Y531010D01*
X242167Y531105D01*
X242158Y531201D01*
X242133Y531274D01*
X242118Y531350D01*
X242078Y531437D01*
X242047Y531529D01*
X242006Y531594D01*
X241974Y531664D01*
X241915Y531740D01*
X241864Y531822D01*
X241810Y531876D01*
X241762Y531937D01*
X241688Y531998D01*
X241619Y532066D01*
X241553Y532106D01*
X241494Y532155D01*
X241407Y532196D01*
X241325Y532247D01*
X241251Y532271D01*
X241182Y532305D01*
X241010Y532351D01*
X240996Y532356D01*
X240992Y532356D01*
X240984Y532358D01*
X240614Y532432D01*
X239750Y532790D01*
X238972Y533310D01*
X238310Y533972D01*
X237790Y534750D01*
X237479Y535501D01*
X242000Y535501D01*
X242035Y535505D01*
X242070Y535502D01*
X242206Y535525D01*
X242343Y535540D01*
X242376Y535552D01*
X242411Y535558D01*
X242539Y535611D01*
X242668Y535658D01*
X242698Y535677D01*
X242731Y535691D01*
X242842Y535771D01*
X242958Y535847D01*
X242982Y535872D01*
X243011Y535893D01*
X243102Y535997D01*
X243197Y536097D01*
X243214Y536127D01*
X243238Y536154D01*
X243302Y536277D01*
X243372Y536395D01*
X243382Y536429D01*
X243399Y536460D01*
X243433Y536594D01*
X243474Y536725D01*
X243476Y536761D01*
X243485Y536795D01*
X243499Y537000D01*
X243495Y537035D01*
X243497Y537070D01*
X243497Y537071D01*
X243475Y537207D01*
X243459Y537344D01*
X243447Y537377D01*
X243441Y537412D01*
X243388Y537539D01*
X243342Y537669D01*
X243322Y537699D01*
X243309Y537731D01*
X243228Y537843D01*
X243153Y537958D01*
X243127Y537983D01*
X243106Y538012D01*
X243002Y538102D01*
X242903Y538197D01*
X242872Y538215D01*
X242845Y538238D01*
X242723Y538302D01*
X242604Y538372D01*
X242571Y538382D01*
X242539Y538399D01*
X242406Y538433D01*
X242274Y538474D01*
X242239Y538477D01*
X242204Y538485D01*
X242000Y538499D01*
X237420Y538499D01*
X237424Y538552D01*
X237423Y538561D01*
X237424Y538571D01*
X237397Y538732D01*
X237373Y538894D01*
X237369Y538903D01*
X237368Y538912D01*
X237305Y539063D01*
X237244Y539215D01*
X237238Y539222D01*
X237235Y539231D01*
X237139Y539364D01*
X237045Y539498D01*
X237038Y539504D01*
X237033Y539511D01*
X236908Y539619D01*
X236787Y539728D01*
X236779Y539732D01*
X236772Y539738D01*
X236625Y539815D01*
X236483Y539892D01*
X236474Y539894D01*
X236465Y539899D01*
X236305Y539940D01*
X236149Y539983D01*
X236140Y539983D01*
X236131Y539985D01*
X235926Y539999D01*
X73074Y539999D01*
X73065Y539998D01*
X73056Y539999D01*
X72894Y539978D01*
X72731Y539959D01*
X72722Y539956D01*
X72713Y539955D01*
X72560Y539898D01*
X72405Y539842D01*
X72398Y539837D01*
X72389Y539834D01*
X72253Y539743D01*
X72116Y539653D01*
X72109Y539646D01*
X72102Y539641D01*
X71990Y539521D01*
X71877Y539403D01*
X71872Y539395D01*
X71866Y539388D01*
X71784Y539245D01*
X71702Y539105D01*
X71699Y539096D01*
X71695Y539088D01*
X71648Y538931D01*
X71600Y538774D01*
X71599Y538765D01*
X71597Y538756D01*
X71588Y538594D01*
X71581Y538499D01*
X67000Y538499D01*
X62420Y538499D01*
X62424Y538552D01*
X62423Y538561D01*
X62424Y538571D01*
X62397Y538732D01*
X62373Y538894D01*
X62369Y538903D01*
X62368Y538912D01*
X62305Y539063D01*
X62244Y539215D01*
X62238Y539222D01*
X62235Y539231D01*
X62139Y539364D01*
X62045Y539498D01*
X62038Y539504D01*
X62033Y539511D01*
X61908Y539619D01*
X61787Y539728D01*
X61779Y539732D01*
X61772Y539738D01*
X61625Y539815D01*
X61483Y539892D01*
X61474Y539894D01*
X61465Y539899D01*
X61305Y539940D01*
X61149Y539983D01*
X61140Y539983D01*
X61131Y539985D01*
X60926Y539999D01*
X40000Y539999D01*
X39970Y539996D01*
X39902Y539996D01*
X35529Y539709D01*
X35485Y539701D01*
X35441Y539701D01*
X35239Y539662D01*
X26792Y537398D01*
X26705Y537364D01*
X26615Y537339D01*
X26500Y537282D01*
X26471Y537271D01*
X26458Y537262D01*
X26431Y537248D01*
X26212Y537122D01*
X26144Y537072D01*
X26071Y537030D01*
X26006Y536969D01*
X25935Y536916D01*
X25880Y536852D01*
X25818Y536794D01*
X25769Y536720D01*
X25712Y536652D01*
X25673Y536576D01*
X25627Y536506D01*
X25596Y536423D01*
X25555Y536344D01*
X25535Y536261D01*
X25506Y536182D01*
X25495Y536094D01*
X25474Y536008D01*
X25473Y535923D01*
X25463Y535839D01*
X25472Y535751D01*
X25471Y535662D01*
X25490Y535579D01*
X25499Y535495D01*
X25528Y535412D01*
X25548Y535325D01*
X25585Y535249D01*
X25613Y535169D01*
X25689Y535037D01*
X25700Y535014D01*
X25706Y535007D01*
X25715Y534991D01*
X26210Y534250D01*
X26521Y533499D01*
X22000Y533499D01*
X21965Y533495D01*
X21930Y533498D01*
X21794Y533475D01*
X21657Y533460D01*
X21624Y533447D01*
X21589Y533442D01*
X21461Y533389D01*
X21332Y533342D01*
X21302Y533323D01*
X21269Y533309D01*
X21158Y533229D01*
X21042Y533153D01*
X21018Y533127D01*
X20989Y533107D01*
X20988Y533106D01*
X20898Y533002D01*
X20803Y532903D01*
X20785Y532872D01*
X20762Y532845D01*
X20697Y532723D01*
X20628Y532604D01*
X20618Y532571D01*
X20601Y532539D01*
X20567Y532406D01*
X20526Y532274D01*
X20523Y532239D01*
X20515Y532204D01*
X20501Y532000D01*
X20501Y527479D01*
X19750Y527790D01*
X18972Y528310D01*
X18310Y528972D01*
X17951Y529508D01*
X17945Y529516D01*
X17941Y529524D01*
X17833Y529647D01*
X17727Y529772D01*
X17720Y529777D01*
X17714Y529784D01*
X17580Y529881D01*
X17449Y529977D01*
X17440Y529981D01*
X17433Y529986D01*
X17281Y530049D01*
X17131Y530113D01*
X17122Y530114D01*
X17113Y530118D01*
X16950Y530144D01*
X16790Y530172D01*
X16781Y530172D01*
X16772Y530173D01*
X16608Y530162D01*
X16445Y530152D01*
X16436Y530149D01*
X16427Y530149D01*
X16271Y530100D01*
X16114Y530053D01*
X16106Y530049D01*
X16097Y530046D01*
X15957Y529963D01*
X15814Y529881D01*
X15807Y529875D01*
X15799Y529870D01*
X15644Y529736D01*
X12363Y526454D01*
X12304Y526380D01*
X12239Y526313D01*
X12167Y526207D01*
X12148Y526183D01*
X12141Y526168D01*
X12124Y526143D01*
X7752Y518570D01*
X7719Y518495D01*
X7678Y518425D01*
X7674Y518413D01*
X7668Y518402D01*
X7627Y518281D01*
X7614Y518252D01*
X7612Y518237D01*
X7602Y518208D01*
X5338Y509761D01*
X5332Y509717D01*
X5318Y509674D01*
X5291Y509471D01*
X5004Y505098D01*
X5005Y505069D01*
X5001Y505000D01*
X5001Y493250D01*
X5005Y493215D01*
X5002Y493179D01*
X5025Y493043D01*
X5041Y492907D01*
X5053Y492873D01*
X5058Y492838D01*
X5111Y492711D01*
X5158Y492581D01*
X5177Y492552D01*
X5191Y492519D01*
X5272Y492407D01*
X5347Y492292D01*
X5373Y492267D01*
X5393Y492239D01*
X5497Y492148D01*
X5501Y492145D01*
X5501Y487000D01*
X5501Y481865D01*
X5489Y481857D01*
X5398Y481753D01*
X5303Y481653D01*
X5285Y481622D01*
X5262Y481596D01*
X5198Y481473D01*
X5128Y481355D01*
X5118Y481321D01*
X5101Y481289D01*
X5067Y481156D01*
X5026Y481024D01*
X5024Y480989D01*
X5015Y480955D01*
X5001Y480750D01*
X5001Y443250D01*
X5005Y443215D01*
X5002Y443179D01*
X5025Y443043D01*
X5041Y442907D01*
X5053Y442873D01*
X5058Y442838D01*
X5111Y442711D01*
X5158Y442581D01*
X5177Y442552D01*
X5191Y442519D01*
X5272Y442407D01*
X5347Y442292D01*
X5373Y442267D01*
X5393Y442239D01*
X5497Y442148D01*
X5501Y442145D01*
X5501Y437000D01*
X5501Y431865D01*
X5489Y431857D01*
X5398Y431753D01*
X5303Y431653D01*
X5285Y431622D01*
X5262Y431596D01*
X5198Y431473D01*
X5128Y431355D01*
X5118Y431321D01*
X5101Y431289D01*
X5067Y431156D01*
X5026Y431024D01*
X5024Y430989D01*
X5015Y430955D01*
X5001Y430750D01*
X5001Y373250D01*
X5005Y373215D01*
X5002Y373179D01*
X5025Y373043D01*
X5041Y372907D01*
X5053Y372873D01*
X5058Y372838D01*
X5111Y372711D01*
X5158Y372581D01*
X5177Y372552D01*
X5191Y372519D01*
X5272Y372407D01*
X5347Y372292D01*
X5373Y372267D01*
X5393Y372239D01*
X5497Y372148D01*
X5501Y372145D01*
X5501Y367000D01*
X5501Y361865D01*
X5489Y361857D01*
X5398Y361753D01*
X5303Y361653D01*
X5285Y361622D01*
X5262Y361596D01*
X5198Y361473D01*
X5128Y361355D01*
X5118Y361321D01*
X5101Y361289D01*
X5067Y361156D01*
X5026Y361024D01*
X5024Y360989D01*
X5015Y360955D01*
X5001Y360750D01*
X5001Y318250D01*
X5005Y318215D01*
X5002Y318179D01*
X5025Y318043D01*
X5041Y317907D01*
X5053Y317873D01*
X5058Y317838D01*
X5111Y317711D01*
X5158Y317581D01*
X5177Y317552D01*
X5191Y317519D01*
X5272Y317407D01*
X5347Y317292D01*
X5373Y317267D01*
X5393Y317239D01*
X5497Y317148D01*
X5501Y317145D01*
X5501Y312000D01*
X5501Y306865D01*
X5489Y306857D01*
X5398Y306753D01*
X5303Y306653D01*
X5285Y306622D01*
X5262Y306596D01*
X5198Y306473D01*
X5128Y306355D01*
X5118Y306321D01*
X5101Y306289D01*
X5067Y306156D01*
X5026Y306024D01*
X5024Y305989D01*
X5015Y305955D01*
X5001Y305750D01*
X5001Y263250D01*
X5005Y263215D01*
X5002Y263179D01*
X5025Y263043D01*
X5041Y262907D01*
X5053Y262873D01*
X5058Y262838D01*
X5111Y262711D01*
X5158Y262581D01*
X5177Y262552D01*
X5191Y262519D01*
X5272Y262407D01*
X5347Y262292D01*
X5373Y262267D01*
X5393Y262239D01*
X5497Y262148D01*
X5501Y262145D01*
X5501Y257000D01*
X5501Y251865D01*
X5489Y251857D01*
X5398Y251753D01*
X5303Y251653D01*
X5285Y251622D01*
X5262Y251596D01*
X5198Y251473D01*
X5128Y251355D01*
X5118Y251321D01*
X5101Y251289D01*
X5067Y251156D01*
X5026Y251024D01*
X5024Y250989D01*
X5015Y250955D01*
X5001Y250750D01*
X5001Y198250D01*
X5005Y198215D01*
X5002Y198179D01*
X5025Y198043D01*
X5041Y197907D01*
X5053Y197873D01*
X5058Y197838D01*
X5111Y197711D01*
X5158Y197581D01*
X5177Y197552D01*
X5191Y197519D01*
X5272Y197407D01*
X5347Y197292D01*
X5373Y197267D01*
X5393Y197239D01*
X5497Y197148D01*
X5501Y197145D01*
X5501Y192000D01*
X5501Y186865D01*
X5489Y186857D01*
X5398Y186753D01*
X5303Y186653D01*
X5285Y186622D01*
X5262Y186596D01*
X5198Y186473D01*
X5128Y186355D01*
X5118Y186321D01*
X5101Y186289D01*
X5067Y186156D01*
X5026Y186024D01*
X5024Y185989D01*
X5015Y185955D01*
X5001Y185750D01*
X5001Y138250D01*
X5005Y138215D01*
X5002Y138179D01*
X5025Y138043D01*
X5041Y137907D01*
X5053Y137873D01*
X5058Y137838D01*
X5111Y137711D01*
X5158Y137581D01*
X5177Y137552D01*
X5191Y137519D01*
X5272Y137407D01*
X5347Y137292D01*
X5373Y137267D01*
X5393Y137239D01*
X5497Y137148D01*
X5501Y137145D01*
X5501Y132000D01*
X5501Y126865D01*
X5489Y126857D01*
X5398Y126753D01*
X5303Y126653D01*
X5285Y126622D01*
X5262Y126596D01*
X5198Y126473D01*
X5128Y126355D01*
X5118Y126321D01*
X5101Y126289D01*
X5067Y126156D01*
X5026Y126024D01*
X5024Y125989D01*
X5015Y125955D01*
X5001Y125750D01*
X5001Y83250D01*
X5005Y83215D01*
X5002Y83179D01*
X5025Y83043D01*
X5041Y82907D01*
X5053Y82873D01*
X5058Y82838D01*
X5111Y82711D01*
X5158Y82581D01*
X5177Y82552D01*
X5191Y82519D01*
X5272Y82407D01*
X5347Y82292D01*
X5373Y82267D01*
X5393Y82239D01*
X5497Y82148D01*
X5501Y82145D01*
X5501Y77000D01*
X5505Y76965D01*
X5502Y76930D01*
X5525Y76794D01*
X5540Y76657D01*
X5552Y76624D01*
X5558Y76589D01*
X5611Y76461D01*
X5658Y76332D01*
X5677Y76302D01*
X5691Y76269D01*
X5771Y76158D01*
X5847Y76042D01*
X5872Y76018D01*
X5893Y75989D01*
X5997Y75898D01*
X6097Y75803D01*
X6127Y75786D01*
X6154Y75762D01*
X6277Y75698D01*
X6395Y75628D01*
X6429Y75618D01*
X6460Y75601D01*
X6594Y75567D01*
X6725Y75526D01*
X6761Y75524D01*
X6795Y75515D01*
X7000Y75501D01*
X7035Y75505D01*
X7070Y75503D01*
X7071Y75503D01*
X7207Y75525D01*
X7344Y75541D01*
X7377Y75553D01*
X7412Y75559D01*
X7539Y75612D01*
X7669Y75658D01*
X7699Y75678D01*
X7731Y75691D01*
X7843Y75772D01*
X7958Y75847D01*
X7983Y75873D01*
X8012Y75894D01*
X8102Y75998D01*
X8197Y76097D01*
X8215Y76128D01*
X8238Y76155D01*
X8302Y76277D01*
X8372Y76396D01*
X8382Y76429D01*
X8399Y76461D01*
X8433Y76594D01*
X8474Y76726D01*
X8477Y76761D01*
X8485Y76796D01*
X8499Y77000D01*
X8499Y81521D01*
X9250Y81210D01*
X10028Y80690D01*
X10690Y80028D01*
X11210Y79250D01*
X11568Y78386D01*
X11663Y77907D01*
X11707Y77771D01*
X11746Y77633D01*
X11760Y77607D01*
X11770Y77578D01*
X11844Y77455D01*
X11912Y77330D01*
X11932Y77308D01*
X11948Y77282D01*
X12048Y77179D01*
X12144Y77073D01*
X12169Y77056D01*
X12190Y77034D01*
X12311Y76958D01*
X12428Y76877D01*
X12456Y76865D01*
X12482Y76849D01*
X12617Y76802D01*
X12750Y76750D01*
X12780Y76746D01*
X12808Y76736D01*
X12951Y76721D01*
X13092Y76701D01*
X13122Y76703D01*
X13152Y76700D01*
X13294Y76718D01*
X13436Y76731D01*
X13465Y76740D01*
X13495Y76744D01*
X13629Y76794D01*
X13765Y76839D01*
X13800Y76859D01*
X13819Y76866D01*
X13847Y76884D01*
X13944Y76938D01*
X21047Y81502D01*
X26763Y83181D01*
X26821Y83206D01*
X26883Y83222D01*
X26980Y83273D01*
X27081Y83316D01*
X27132Y83353D01*
X27189Y83383D01*
X27271Y83455D01*
X27360Y83520D01*
X27401Y83568D01*
X27449Y83610D01*
X27513Y83699D01*
X27585Y83783D01*
X27614Y83839D01*
X27651Y83891D01*
X27693Y83992D01*
X27743Y84090D01*
X27759Y84152D01*
X27783Y84211D01*
X27800Y84319D01*
X27827Y84425D01*
X27828Y84489D01*
X27838Y84552D01*
X27830Y84661D01*
X27832Y84771D01*
X27818Y84833D01*
X27814Y84897D01*
X27781Y85002D01*
X27757Y85109D01*
X27730Y85166D01*
X27711Y85227D01*
X27655Y85322D01*
X27608Y85420D01*
X27568Y85470D01*
X27535Y85525D01*
X27400Y85679D01*
X26305Y86774D01*
X25251Y88226D01*
X24436Y89824D01*
X23882Y91531D01*
X23861Y91661D01*
X33960Y91661D01*
X33995Y91665D01*
X34030Y91662D01*
X34166Y91685D01*
X34303Y91701D01*
X34337Y91713D01*
X34372Y91718D01*
X34499Y91771D01*
X34628Y91818D01*
X34658Y91837D01*
X34691Y91851D01*
X34803Y91932D01*
X34918Y92007D01*
X34942Y92033D01*
X34971Y92053D01*
X35002Y92089D01*
X35038Y92058D01*
X35137Y91963D01*
X35168Y91945D01*
X35195Y91922D01*
X35317Y91858D01*
X35435Y91788D01*
X35469Y91778D01*
X35501Y91761D01*
X35634Y91727D01*
X35766Y91686D01*
X35801Y91684D01*
X35836Y91675D01*
X36040Y91661D01*
X46139Y91661D01*
X46118Y91531D01*
X45564Y89824D01*
X44749Y88226D01*
X44252Y87541D01*
X44173Y87402D01*
X44093Y87265D01*
X44089Y87252D01*
X44082Y87240D01*
X44038Y87086D01*
X43991Y86935D01*
X43990Y86921D01*
X43986Y86908D01*
X43978Y86749D01*
X43967Y86590D01*
X43969Y86576D01*
X43969Y86563D01*
X43997Y86406D01*
X44023Y86248D01*
X44028Y86236D01*
X44031Y86223D01*
X44095Y86076D01*
X44156Y85929D01*
X44164Y85918D01*
X44169Y85906D01*
X44265Y85778D01*
X44358Y85649D01*
X44368Y85640D01*
X44376Y85629D01*
X44499Y85527D01*
X44619Y85422D01*
X44631Y85416D01*
X44642Y85407D01*
X44783Y85336D01*
X44925Y85261D01*
X44938Y85258D01*
X44950Y85252D01*
X45105Y85215D01*
X45260Y85175D01*
X45277Y85174D01*
X45287Y85172D01*
X45311Y85171D01*
X45465Y85161D01*
X46493Y85161D01*
X58953Y81502D01*
X67667Y75902D01*
X67734Y75869D01*
X67796Y75828D01*
X67889Y75794D01*
X67978Y75750D01*
X68050Y75734D01*
X68120Y75708D01*
X68218Y75695D01*
X68315Y75673D01*
X68389Y75674D01*
X68463Y75664D01*
X68562Y75675D01*
X68661Y75675D01*
X68733Y75693D01*
X68807Y75701D01*
X68900Y75733D01*
X68997Y75757D01*
X69063Y75790D01*
X69133Y75815D01*
X69297Y75909D01*
X69305Y75913D01*
X69307Y75915D01*
X69311Y75917D01*
X69750Y76210D01*
X70501Y76521D01*
X70501Y74322D01*
X70509Y74251D01*
X70507Y74179D01*
X70529Y74080D01*
X70540Y73979D01*
X70565Y73911D01*
X70580Y73841D01*
X70623Y73749D01*
X70658Y73654D01*
X70697Y73593D01*
X70728Y73529D01*
X70845Y73367D01*
X70847Y73364D01*
X70848Y73363D01*
X70848Y73362D01*
X70970Y73247D01*
X71097Y73125D01*
X71098Y73124D01*
X71099Y73124D01*
X71254Y73033D01*
X71395Y72950D01*
X71396Y72950D01*
X71397Y72949D01*
X71570Y72896D01*
X71726Y72848D01*
X71727Y72848D01*
X71728Y72848D01*
X71902Y72836D01*
X72071Y72824D01*
X72072Y72824D01*
X72073Y72824D01*
X72243Y72853D01*
X72412Y72880D01*
X72413Y72881D01*
X72414Y72881D01*
X72572Y72947D01*
X72731Y73013D01*
X72732Y73014D01*
X72733Y73014D01*
X72871Y73114D01*
X73012Y73215D01*
X73012Y73216D01*
X73013Y73217D01*
X73126Y73347D01*
X73238Y73476D01*
X73239Y73477D01*
X73239Y73478D01*
X73314Y73620D01*
X73399Y73782D01*
X73399Y73783D01*
X73400Y73784D01*
X73441Y73946D01*
X73485Y74117D01*
X73485Y74118D01*
X73486Y74119D01*
X73486Y74122D01*
X73499Y74322D01*
X73499Y76521D01*
X74250Y76210D01*
X75028Y75690D01*
X75690Y75028D01*
X76210Y74250D01*
X76521Y73499D01*
X74012Y73499D01*
X73947Y73492D01*
X73882Y73494D01*
X73776Y73472D01*
X73669Y73460D01*
X73607Y73437D01*
X73544Y73424D01*
X73445Y73379D01*
X73343Y73342D01*
X73289Y73306D01*
X73230Y73279D01*
X73145Y73212D01*
X73054Y73153D01*
X73009Y73106D01*
X72958Y73066D01*
X72890Y72981D01*
X72815Y72903D01*
X72782Y72847D01*
X72742Y72796D01*
X72695Y72698D01*
X72640Y72605D01*
X72621Y72543D01*
X72593Y72484D01*
X72570Y72378D01*
X72538Y72275D01*
X72534Y72210D01*
X72520Y72146D01*
X72522Y72038D01*
X72514Y71930D01*
X72525Y71865D01*
X72526Y71800D01*
X72553Y71695D01*
X72570Y71588D01*
X72595Y71528D01*
X72611Y71465D01*
X72661Y71369D01*
X72703Y71269D01*
X72741Y71216D01*
X72771Y71159D01*
X72898Y70997D01*
X72902Y70993D01*
X72905Y70989D01*
X72906Y70988D01*
X73033Y70878D01*
X73157Y70768D01*
X73162Y70766D01*
X73167Y70762D01*
X73316Y70684D01*
X73462Y70605D01*
X73468Y70604D01*
X73473Y70601D01*
X73637Y70559D01*
X73796Y70516D01*
X73802Y70516D01*
X73808Y70515D01*
X74012Y70501D01*
X76521Y70501D01*
X76210Y69750D01*
X75874Y69246D01*
X75870Y69239D01*
X75865Y69233D01*
X75792Y69086D01*
X75716Y68938D01*
X75714Y68931D01*
X75710Y68924D01*
X75673Y68764D01*
X75633Y68603D01*
X75633Y68595D01*
X75631Y68587D01*
X75631Y68422D01*
X75629Y68257D01*
X75631Y68249D01*
X75631Y68241D01*
X75669Y68080D01*
X75704Y67920D01*
X75708Y67913D01*
X75710Y67905D01*
X75784Y67756D01*
X75855Y67608D01*
X75860Y67602D01*
X75864Y67595D01*
X75987Y67431D01*
X78382Y64667D01*
X83777Y52854D01*
X85625Y40000D01*
X83777Y27146D01*
X78382Y15333D01*
X77289Y14071D01*
X77246Y14008D01*
X77195Y13950D01*
X77149Y13865D01*
X77094Y13786D01*
X77067Y13714D01*
X77030Y13646D01*
X77005Y13553D01*
X76970Y13463D01*
X76960Y13387D01*
X76940Y13313D01*
X76936Y13216D01*
X76923Y13120D01*
X76931Y13044D01*
X76928Y12967D01*
X76947Y12872D01*
X76956Y12776D01*
X76981Y12703D01*
X76996Y12628D01*
X77036Y12540D01*
X77067Y12449D01*
X77107Y12383D01*
X77139Y12313D01*
X77199Y12237D01*
X77250Y12155D01*
X77304Y12101D01*
X77351Y12040D01*
X77426Y11979D01*
X77495Y11912D01*
X77560Y11871D01*
X77620Y11823D01*
X77707Y11781D01*
X77789Y11730D01*
X77862Y11706D01*
X77932Y11673D01*
X78104Y11626D01*
X78117Y11622D01*
X78122Y11621D01*
X78130Y11619D01*
X78386Y11568D01*
X79250Y11210D01*
X80028Y10690D01*
X80690Y10028D01*
X81210Y9250D01*
X81521Y8499D01*
X77000Y8499D01*
X76965Y8495D01*
X76930Y8498D01*
X76794Y8475D01*
X76657Y8460D01*
X76624Y8447D01*
X76589Y8442D01*
X76461Y8389D01*
X76332Y8342D01*
X76302Y8323D01*
X76269Y8309D01*
X76158Y8229D01*
X76042Y8153D01*
X76018Y8128D01*
X75989Y8107D01*
X75898Y8003D01*
X75803Y7903D01*
X75786Y7873D01*
X75762Y7846D01*
X75698Y7723D01*
X75628Y7605D01*
X75618Y7571D01*
X75601Y7540D01*
X75567Y7406D01*
X75526Y7275D01*
X75524Y7239D01*
X75515Y7205D01*
X75501Y7000D01*
X75505Y6965D01*
X75503Y6930D01*
X75503Y6929D01*
X75525Y6793D01*
X75541Y6656D01*
X75553Y6623D01*
X75559Y6588D01*
X75612Y6461D01*
X75658Y6331D01*
X75678Y6301D01*
X75691Y6269D01*
X75772Y6157D01*
X75847Y6042D01*
X75873Y6017D01*
X75894Y5988D01*
X75998Y5898D01*
X76097Y5803D01*
X76128Y5785D01*
X76155Y5762D01*
X76277Y5698D01*
X76396Y5628D01*
X76429Y5618D01*
X76461Y5601D01*
X76594Y5567D01*
X76726Y5526D01*
X76761Y5523D01*
X76796Y5515D01*
X77000Y5501D01*
X82135Y5501D01*
X82143Y5489D01*
X82247Y5398D01*
X82347Y5303D01*
X82378Y5285D01*
X82404Y5262D01*
X82527Y5198D01*
X82645Y5128D01*
X82679Y5118D01*
X82711Y5101D01*
X82844Y5067D01*
X82976Y5026D01*
X83011Y5024D01*
X83045Y5015D01*
X83250Y5001D01*
X125750Y5001D01*
X125785Y5005D01*
G37*
%LPC*%
G36*
X93707Y88499D02*
X93707Y88499D01*
X91318Y89489D01*
X64489Y116318D01*
X63499Y118707D01*
X63499Y120686D01*
X63487Y120790D01*
X63485Y120894D01*
X63467Y120961D01*
X63459Y121030D01*
X63424Y121128D01*
X63398Y121229D01*
X63365Y121290D01*
X63342Y121355D01*
X63285Y121443D01*
X63236Y121535D01*
X63191Y121587D01*
X63153Y121645D01*
X63078Y121717D01*
X63009Y121795D01*
X62953Y121836D01*
X62903Y121883D01*
X62813Y121936D01*
X62728Y121997D01*
X62664Y122023D01*
X62605Y122058D01*
X62505Y122089D01*
X62409Y122129D01*
X62340Y122140D01*
X62274Y122160D01*
X62170Y122167D01*
X62067Y122184D01*
X61998Y122179D01*
X61929Y122184D01*
X61827Y122167D01*
X61722Y122160D01*
X61656Y122139D01*
X61588Y122128D01*
X61492Y122088D01*
X61392Y122057D01*
X61333Y122022D01*
X61269Y121995D01*
X61184Y121934D01*
X61095Y121881D01*
X61016Y121813D01*
X60989Y121793D01*
X60974Y121776D01*
X60940Y121746D01*
X53282Y114089D01*
X50893Y113099D01*
X48894Y113099D01*
X48807Y113089D01*
X48720Y113089D01*
X48636Y113069D01*
X48551Y113059D01*
X48468Y113030D01*
X48383Y113010D01*
X48306Y112971D01*
X48226Y112942D01*
X48152Y112894D01*
X48074Y112855D01*
X48008Y112800D01*
X47936Y112753D01*
X47876Y112690D01*
X47808Y112634D01*
X47757Y112565D01*
X47697Y112503D01*
X47653Y112427D01*
X47600Y112357D01*
X47536Y112229D01*
X47522Y112205D01*
X47519Y112193D01*
X47509Y112174D01*
X47207Y111444D01*
X43156Y107393D01*
X41221Y106592D01*
X41132Y106542D01*
X41040Y106502D01*
X40982Y106459D01*
X40919Y106423D01*
X40844Y106355D01*
X40763Y106295D01*
X40717Y106239D01*
X40663Y106190D01*
X40606Y106107D01*
X40541Y106030D01*
X40509Y105965D01*
X40468Y105905D01*
X40431Y105811D01*
X40386Y105721D01*
X40369Y105650D01*
X40343Y105583D01*
X40329Y105483D01*
X40306Y105384D01*
X40305Y105312D01*
X40295Y105240D01*
X40305Y105140D01*
X40304Y105039D01*
X40321Y104968D01*
X40328Y104896D01*
X40360Y104800D01*
X40383Y104702D01*
X40415Y104637D01*
X40438Y104568D01*
X40491Y104482D01*
X40536Y104392D01*
X40582Y104336D01*
X40620Y104274D01*
X40691Y104203D01*
X40756Y104125D01*
X40841Y104054D01*
X40865Y104030D01*
X40882Y104019D01*
X40913Y103994D01*
X42426Y102894D01*
X43694Y101626D01*
X44749Y100174D01*
X45564Y98576D01*
X46118Y96869D01*
X46139Y96739D01*
X36040Y96739D01*
X36005Y96735D01*
X35970Y96738D01*
X35834Y96715D01*
X35697Y96699D01*
X35663Y96687D01*
X35628Y96682D01*
X35501Y96629D01*
X35372Y96582D01*
X35342Y96563D01*
X35309Y96549D01*
X35197Y96468D01*
X35082Y96393D01*
X35058Y96367D01*
X35029Y96347D01*
X34998Y96311D01*
X34962Y96342D01*
X34863Y96437D01*
X34832Y96455D01*
X34805Y96478D01*
X34683Y96542D01*
X34565Y96612D01*
X34531Y96622D01*
X34499Y96639D01*
X34366Y96673D01*
X34234Y96714D01*
X34199Y96716D01*
X34164Y96725D01*
X33960Y96739D01*
X23861Y96739D01*
X23882Y96869D01*
X24436Y98576D01*
X25251Y100174D01*
X26306Y101626D01*
X27574Y102894D01*
X29087Y103994D01*
X29161Y104062D01*
X29242Y104123D01*
X29288Y104178D01*
X29341Y104228D01*
X29398Y104311D01*
X29462Y104389D01*
X29495Y104454D01*
X29535Y104514D01*
X29571Y104608D01*
X29616Y104699D01*
X29633Y104769D01*
X29659Y104837D01*
X29672Y104937D01*
X29695Y105035D01*
X29695Y105108D01*
X29705Y105180D01*
X29695Y105280D01*
X29695Y105381D01*
X29678Y105452D01*
X29671Y105524D01*
X29638Y105619D01*
X29615Y105717D01*
X29583Y105782D01*
X29559Y105851D01*
X29506Y105936D01*
X29461Y106027D01*
X29414Y106082D01*
X29376Y106144D01*
X29304Y106215D01*
X29239Y106292D01*
X29182Y106336D01*
X29130Y106387D01*
X29044Y106440D01*
X28963Y106500D01*
X28864Y106550D01*
X28835Y106567D01*
X28815Y106574D01*
X28779Y106592D01*
X26844Y107393D01*
X22793Y111444D01*
X20601Y116736D01*
X20601Y122464D01*
X22793Y127756D01*
X26277Y131240D01*
X26299Y131268D01*
X26326Y131291D01*
X26406Y131403D01*
X26492Y131511D01*
X26507Y131543D01*
X26527Y131572D01*
X26580Y131699D01*
X26639Y131824D01*
X26646Y131859D01*
X26659Y131891D01*
X26681Y132027D01*
X26710Y132162D01*
X26709Y132198D01*
X26715Y132233D01*
X26705Y132370D01*
X26702Y132508D01*
X26693Y132542D01*
X26690Y132578D01*
X26649Y132709D01*
X26615Y132842D01*
X26598Y132874D01*
X26587Y132908D01*
X26517Y133027D01*
X26453Y133148D01*
X26430Y133175D01*
X26412Y133205D01*
X26277Y133360D01*
X22793Y136844D01*
X20601Y142136D01*
X20601Y147864D01*
X22793Y153156D01*
X26844Y157207D01*
X32136Y159399D01*
X37864Y159399D01*
X41426Y157923D01*
X41576Y157881D01*
X41726Y157834D01*
X41743Y157833D01*
X41759Y157829D01*
X41914Y157821D01*
X42071Y157811D01*
X42087Y157814D01*
X42104Y157813D01*
X42258Y157842D01*
X42412Y157867D01*
X42427Y157873D01*
X42444Y157876D01*
X42587Y157940D01*
X42731Y157999D01*
X42745Y158009D01*
X42760Y158016D01*
X42885Y158110D01*
X43011Y158202D01*
X43023Y158214D01*
X43036Y158225D01*
X43136Y158345D01*
X43238Y158463D01*
X43246Y158478D01*
X43257Y158491D01*
X43326Y158630D01*
X43399Y158769D01*
X43403Y158785D01*
X43411Y158800D01*
X43446Y158951D01*
X43485Y159104D01*
X43487Y159125D01*
X43489Y159137D01*
X43489Y159165D01*
X43499Y159308D01*
X43499Y175692D01*
X43481Y175847D01*
X43467Y176002D01*
X43461Y176018D01*
X43459Y176035D01*
X43406Y176182D01*
X43357Y176330D01*
X43348Y176344D01*
X43342Y176360D01*
X43257Y176491D01*
X43174Y176624D01*
X43162Y176636D01*
X43153Y176650D01*
X43040Y176757D01*
X42930Y176868D01*
X42915Y176877D01*
X42903Y176889D01*
X42769Y176967D01*
X42635Y177050D01*
X42619Y177055D01*
X42605Y177064D01*
X42456Y177109D01*
X42307Y177159D01*
X42291Y177161D01*
X42274Y177166D01*
X42118Y177176D01*
X41963Y177190D01*
X41946Y177188D01*
X41929Y177189D01*
X41775Y177164D01*
X41621Y177142D01*
X41600Y177135D01*
X41588Y177133D01*
X41563Y177123D01*
X41426Y177077D01*
X37864Y175601D01*
X32136Y175601D01*
X26844Y177793D01*
X22793Y181844D01*
X20601Y187136D01*
X20601Y192864D01*
X22793Y198156D01*
X26277Y201640D01*
X26299Y201668D01*
X26326Y201691D01*
X26406Y201803D01*
X26492Y201911D01*
X26507Y201943D01*
X26527Y201972D01*
X26580Y202099D01*
X26639Y202224D01*
X26646Y202259D01*
X26659Y202291D01*
X26681Y202428D01*
X26710Y202562D01*
X26709Y202598D01*
X26715Y202633D01*
X26705Y202770D01*
X26702Y202908D01*
X26693Y202942D01*
X26690Y202978D01*
X26649Y203109D01*
X26615Y203242D01*
X26598Y203274D01*
X26587Y203308D01*
X26517Y203426D01*
X26453Y203548D01*
X26430Y203575D01*
X26412Y203605D01*
X26277Y203760D01*
X22793Y207244D01*
X20601Y212536D01*
X20601Y218264D01*
X22793Y223556D01*
X26277Y227040D01*
X26299Y227068D01*
X26326Y227091D01*
X26406Y227203D01*
X26492Y227311D01*
X26507Y227343D01*
X26527Y227372D01*
X26580Y227499D01*
X26639Y227624D01*
X26646Y227659D01*
X26659Y227691D01*
X26681Y227828D01*
X26710Y227962D01*
X26709Y227998D01*
X26715Y228033D01*
X26705Y228170D01*
X26702Y228308D01*
X26693Y228342D01*
X26690Y228378D01*
X26649Y228509D01*
X26615Y228642D01*
X26598Y228674D01*
X26587Y228708D01*
X26517Y228826D01*
X26453Y228948D01*
X26430Y228975D01*
X26412Y229005D01*
X26277Y229160D01*
X22793Y232644D01*
X20601Y237936D01*
X20601Y243664D01*
X22793Y248956D01*
X26844Y253007D01*
X28779Y253808D01*
X28868Y253858D01*
X28960Y253898D01*
X29018Y253941D01*
X29081Y253977D01*
X29156Y254045D01*
X29237Y254105D01*
X29283Y254161D01*
X29337Y254210D01*
X29394Y254293D01*
X29459Y254370D01*
X29491Y254435D01*
X29532Y254495D01*
X29569Y254589D01*
X29614Y254679D01*
X29631Y254750D01*
X29657Y254817D01*
X29671Y254917D01*
X29694Y255016D01*
X29695Y255088D01*
X29705Y255160D01*
X29695Y255260D01*
X29696Y255361D01*
X29679Y255432D01*
X29672Y255504D01*
X29640Y255600D01*
X29617Y255698D01*
X29585Y255763D01*
X29562Y255832D01*
X29509Y255918D01*
X29464Y256008D01*
X29418Y256064D01*
X29380Y256126D01*
X29309Y256197D01*
X29244Y256275D01*
X29159Y256346D01*
X29135Y256370D01*
X29118Y256381D01*
X29087Y256406D01*
X27574Y257506D01*
X26306Y258774D01*
X25251Y260226D01*
X24436Y261824D01*
X23882Y263531D01*
X23861Y263661D01*
X33960Y263661D01*
X33995Y263665D01*
X34030Y263662D01*
X34166Y263685D01*
X34303Y263701D01*
X34337Y263713D01*
X34372Y263718D01*
X34499Y263771D01*
X34628Y263818D01*
X34658Y263837D01*
X34691Y263851D01*
X34803Y263932D01*
X34918Y264007D01*
X34942Y264033D01*
X34971Y264053D01*
X35062Y264157D01*
X35157Y264257D01*
X35175Y264288D01*
X35198Y264314D01*
X35262Y264436D01*
X35332Y264555D01*
X35342Y264589D01*
X35359Y264620D01*
X35393Y264754D01*
X35434Y264886D01*
X35436Y264921D01*
X35445Y264955D01*
X35459Y265160D01*
X35459Y265741D01*
X36040Y265741D01*
X36075Y265745D01*
X36111Y265743D01*
X36247Y265765D01*
X36383Y265781D01*
X36417Y265793D01*
X36452Y265799D01*
X36579Y265851D01*
X36709Y265898D01*
X36738Y265918D01*
X36771Y265931D01*
X36883Y266012D01*
X36998Y266087D01*
X37023Y266113D01*
X37051Y266134D01*
X37142Y266238D01*
X37237Y266337D01*
X37255Y266368D01*
X37278Y266395D01*
X37342Y266517D01*
X37412Y266635D01*
X37422Y266669D01*
X37439Y266701D01*
X37473Y266834D01*
X37514Y266966D01*
X37516Y267001D01*
X37525Y267036D01*
X37539Y267240D01*
X37539Y277339D01*
X37669Y277318D01*
X39376Y276764D01*
X40974Y275949D01*
X41119Y275844D01*
X41258Y275766D01*
X41395Y275685D01*
X41408Y275681D01*
X41420Y275674D01*
X41573Y275630D01*
X41726Y275583D01*
X41739Y275582D01*
X41752Y275578D01*
X41912Y275570D01*
X42071Y275559D01*
X42084Y275562D01*
X42097Y275561D01*
X42255Y275590D01*
X42412Y275615D01*
X42424Y275621D01*
X42438Y275623D01*
X42584Y275687D01*
X42731Y275748D01*
X42742Y275756D01*
X42754Y275761D01*
X42882Y275857D01*
X43011Y275950D01*
X43020Y275961D01*
X43031Y275969D01*
X43133Y276091D01*
X43238Y276211D01*
X43244Y276223D01*
X43253Y276234D01*
X43324Y276375D01*
X43399Y276518D01*
X43402Y276531D01*
X43408Y276543D01*
X43445Y276697D01*
X43485Y276852D01*
X43486Y276870D01*
X43489Y276879D01*
X43489Y276904D01*
X43499Y277057D01*
X43499Y296293D01*
X44489Y298682D01*
X45746Y299940D01*
X45811Y300022D01*
X45883Y300097D01*
X45918Y300157D01*
X45961Y300211D01*
X46005Y300305D01*
X46058Y300395D01*
X46079Y300461D01*
X46108Y300524D01*
X46130Y300626D01*
X46160Y300726D01*
X46165Y300795D01*
X46179Y300862D01*
X46177Y300966D01*
X46184Y301071D01*
X46173Y301139D01*
X46171Y301208D01*
X46145Y301309D01*
X46128Y301412D01*
X46101Y301476D01*
X46084Y301542D01*
X46035Y301635D01*
X45995Y301731D01*
X45955Y301787D01*
X45923Y301848D01*
X45854Y301927D01*
X45793Y302011D01*
X45741Y302057D01*
X45695Y302109D01*
X45611Y302170D01*
X45532Y302238D01*
X45471Y302270D01*
X45415Y302311D01*
X45318Y302350D01*
X45226Y302399D01*
X45159Y302416D01*
X45095Y302442D01*
X44992Y302459D01*
X44891Y302485D01*
X44787Y302492D01*
X44754Y302498D01*
X44731Y302496D01*
X44686Y302499D01*
X33728Y302499D01*
X33590Y302483D01*
X33450Y302473D01*
X33418Y302463D01*
X33384Y302459D01*
X33253Y302412D01*
X33120Y302371D01*
X33091Y302353D01*
X33059Y302342D01*
X32943Y302266D01*
X32822Y302195D01*
X32788Y302165D01*
X32770Y302153D01*
X32746Y302129D01*
X32668Y302060D01*
X32032Y301424D01*
X32020Y301410D01*
X32006Y301398D01*
X31932Y301300D01*
X31890Y301256D01*
X31867Y301216D01*
X31817Y301153D01*
X31809Y301136D01*
X31798Y301121D01*
X31724Y300972D01*
X31715Y300958D01*
X31713Y300951D01*
X31707Y300938D01*
X31571Y300610D01*
X29390Y298429D01*
X26542Y297249D01*
X23458Y297249D01*
X20610Y298429D01*
X18429Y300610D01*
X17249Y303458D01*
X17249Y306542D01*
X18429Y309390D01*
X20610Y311571D01*
X20938Y311707D01*
X20954Y311716D01*
X20972Y311721D01*
X21105Y311800D01*
X21240Y311875D01*
X21253Y311887D01*
X21269Y311897D01*
X21424Y312032D01*
X23430Y314038D01*
X25751Y316359D01*
X28508Y317501D01*
X55686Y317501D01*
X55790Y317513D01*
X55894Y317515D01*
X55961Y317533D01*
X56030Y317541D01*
X56128Y317576D01*
X56229Y317602D01*
X56290Y317635D01*
X56355Y317658D01*
X56442Y317715D01*
X56535Y317764D01*
X56587Y317809D01*
X56645Y317847D01*
X56717Y317922D01*
X56795Y317991D01*
X56836Y318047D01*
X56883Y318097D01*
X56936Y318187D01*
X56997Y318272D01*
X57023Y318336D01*
X57058Y318395D01*
X57089Y318495D01*
X57129Y318591D01*
X57140Y318660D01*
X57160Y318726D01*
X57167Y318830D01*
X57184Y318933D01*
X57179Y319002D01*
X57184Y319071D01*
X57167Y319174D01*
X57160Y319278D01*
X57139Y319344D01*
X57128Y319412D01*
X57088Y319508D01*
X57057Y319608D01*
X57022Y319667D01*
X56995Y319731D01*
X56934Y319816D01*
X56881Y319906D01*
X56813Y319984D01*
X56793Y320011D01*
X56776Y320026D01*
X56746Y320060D01*
X56528Y320278D01*
X54489Y322318D01*
X53499Y324707D01*
X53499Y416686D01*
X53483Y416825D01*
X53473Y416964D01*
X53463Y416996D01*
X53459Y417030D01*
X53412Y417161D01*
X53371Y417294D01*
X53353Y417323D01*
X53342Y417355D01*
X53266Y417472D01*
X53195Y417592D01*
X53165Y417626D01*
X53153Y417645D01*
X53129Y417668D01*
X53060Y417746D01*
X51940Y418867D01*
X51899Y418899D01*
X51863Y418938D01*
X51764Y419006D01*
X51669Y419082D01*
X51621Y419104D01*
X51578Y419133D01*
X51465Y419177D01*
X51356Y419228D01*
X51305Y419239D01*
X51256Y419258D01*
X51136Y419275D01*
X51017Y419300D01*
X50965Y419298D01*
X50913Y419306D01*
X50793Y419294D01*
X50672Y419292D01*
X50621Y419278D01*
X50569Y419273D01*
X50455Y419235D01*
X50337Y419204D01*
X50291Y419180D01*
X50241Y419163D01*
X50139Y419100D01*
X50031Y419043D01*
X49992Y419009D01*
X49947Y418981D01*
X49862Y418895D01*
X49771Y418816D01*
X49740Y418773D01*
X49703Y418736D01*
X49640Y418633D01*
X49569Y418535D01*
X49549Y418487D01*
X49522Y418442D01*
X49483Y418327D01*
X49437Y418215D01*
X49429Y418164D01*
X49412Y418114D01*
X49401Y417994D01*
X49382Y417874D01*
X49386Y417822D01*
X49381Y417770D01*
X49398Y417650D01*
X49399Y417635D01*
X49399Y411736D01*
X47207Y406444D01*
X43723Y402960D01*
X43701Y402932D01*
X43674Y402909D01*
X43594Y402797D01*
X43508Y402689D01*
X43493Y402657D01*
X43473Y402628D01*
X43420Y402501D01*
X43361Y402376D01*
X43354Y402341D01*
X43341Y402309D01*
X43319Y402172D01*
X43290Y402038D01*
X43291Y402002D01*
X43285Y401967D01*
X43295Y401830D01*
X43298Y401692D01*
X43307Y401658D01*
X43310Y401622D01*
X43351Y401491D01*
X43385Y401358D01*
X43402Y401326D01*
X43413Y401292D01*
X43483Y401174D01*
X43547Y401052D01*
X43570Y401025D01*
X43588Y400995D01*
X43723Y400840D01*
X47207Y397356D01*
X49399Y392064D01*
X49399Y386336D01*
X47207Y381044D01*
X43723Y377560D01*
X43701Y377532D01*
X43674Y377509D01*
X43594Y377397D01*
X43508Y377289D01*
X43493Y377257D01*
X43473Y377228D01*
X43420Y377101D01*
X43361Y376976D01*
X43354Y376941D01*
X43341Y376909D01*
X43319Y376772D01*
X43290Y376638D01*
X43291Y376602D01*
X43285Y376567D01*
X43295Y376430D01*
X43298Y376292D01*
X43307Y376258D01*
X43310Y376222D01*
X43351Y376091D01*
X43385Y375958D01*
X43402Y375926D01*
X43413Y375892D01*
X43483Y375774D01*
X43547Y375652D01*
X43570Y375625D01*
X43588Y375595D01*
X43723Y375440D01*
X47207Y371956D01*
X49399Y366664D01*
X49399Y360936D01*
X47207Y355644D01*
X43156Y351593D01*
X41221Y350792D01*
X41132Y350742D01*
X41040Y350702D01*
X40982Y350659D01*
X40919Y350623D01*
X40844Y350555D01*
X40763Y350495D01*
X40717Y350439D01*
X40663Y350390D01*
X40606Y350307D01*
X40541Y350230D01*
X40509Y350165D01*
X40468Y350105D01*
X40431Y350011D01*
X40386Y349921D01*
X40369Y349850D01*
X40343Y349783D01*
X40329Y349683D01*
X40306Y349584D01*
X40305Y349512D01*
X40295Y349440D01*
X40305Y349340D01*
X40304Y349239D01*
X40321Y349168D01*
X40328Y349096D01*
X40360Y349000D01*
X40383Y348902D01*
X40415Y348837D01*
X40438Y348768D01*
X40491Y348682D01*
X40536Y348592D01*
X40582Y348536D01*
X40620Y348474D01*
X40691Y348403D01*
X40756Y348325D01*
X40841Y348254D01*
X40865Y348230D01*
X40882Y348219D01*
X40913Y348193D01*
X42426Y347094D01*
X43694Y345826D01*
X44749Y344374D01*
X45564Y342776D01*
X46118Y341069D01*
X46139Y340939D01*
X36040Y340939D01*
X36005Y340935D01*
X35970Y340938D01*
X35834Y340915D01*
X35697Y340899D01*
X35663Y340887D01*
X35628Y340882D01*
X35501Y340829D01*
X35372Y340782D01*
X35342Y340763D01*
X35309Y340749D01*
X35197Y340668D01*
X35082Y340593D01*
X35058Y340567D01*
X35029Y340547D01*
X34998Y340511D01*
X34962Y340542D01*
X34863Y340637D01*
X34832Y340655D01*
X34805Y340678D01*
X34683Y340742D01*
X34565Y340812D01*
X34531Y340822D01*
X34499Y340839D01*
X34366Y340873D01*
X34234Y340914D01*
X34199Y340916D01*
X34164Y340925D01*
X33960Y340939D01*
X23861Y340939D01*
X23882Y341069D01*
X24436Y342776D01*
X25251Y344374D01*
X26306Y345826D01*
X27574Y347094D01*
X29087Y348193D01*
X29161Y348262D01*
X29242Y348323D01*
X29288Y348379D01*
X29341Y348428D01*
X29398Y348511D01*
X29462Y348589D01*
X29495Y348654D01*
X29535Y348714D01*
X29571Y348808D01*
X29616Y348899D01*
X29633Y348969D01*
X29659Y349037D01*
X29672Y349137D01*
X29695Y349235D01*
X29695Y349308D01*
X29705Y349379D01*
X29695Y349480D01*
X29695Y349581D01*
X29678Y349651D01*
X29671Y349724D01*
X29638Y349819D01*
X29615Y349917D01*
X29583Y349982D01*
X29559Y350051D01*
X29506Y350136D01*
X29461Y350227D01*
X29414Y350282D01*
X29376Y350344D01*
X29304Y350415D01*
X29239Y350492D01*
X29181Y350536D01*
X29130Y350587D01*
X29044Y350639D01*
X28963Y350700D01*
X28863Y350750D01*
X28835Y350767D01*
X28816Y350774D01*
X28779Y350792D01*
X26844Y351593D01*
X22793Y355644D01*
X20601Y360936D01*
X20601Y366664D01*
X22793Y371956D01*
X26277Y375440D01*
X26299Y375468D01*
X26326Y375491D01*
X26406Y375603D01*
X26492Y375711D01*
X26507Y375743D01*
X26527Y375772D01*
X26580Y375899D01*
X26639Y376024D01*
X26646Y376059D01*
X26659Y376091D01*
X26681Y376228D01*
X26710Y376362D01*
X26709Y376398D01*
X26715Y376433D01*
X26705Y376570D01*
X26702Y376708D01*
X26693Y376742D01*
X26690Y376778D01*
X26649Y376909D01*
X26615Y377042D01*
X26598Y377074D01*
X26587Y377108D01*
X26517Y377226D01*
X26453Y377348D01*
X26430Y377375D01*
X26412Y377405D01*
X26277Y377560D01*
X22793Y381044D01*
X20601Y386336D01*
X20601Y392064D01*
X22793Y397356D01*
X26277Y400840D01*
X26299Y400868D01*
X26326Y400891D01*
X26406Y401003D01*
X26492Y401111D01*
X26507Y401143D01*
X26527Y401172D01*
X26580Y401299D01*
X26639Y401424D01*
X26646Y401459D01*
X26659Y401491D01*
X26681Y401628D01*
X26710Y401762D01*
X26709Y401798D01*
X26715Y401833D01*
X26705Y401970D01*
X26702Y402108D01*
X26693Y402142D01*
X26690Y402178D01*
X26649Y402309D01*
X26615Y402442D01*
X26598Y402474D01*
X26587Y402508D01*
X26517Y402627D01*
X26453Y402748D01*
X26430Y402775D01*
X26412Y402805D01*
X26277Y402960D01*
X22793Y406444D01*
X20601Y411736D01*
X20601Y417464D01*
X22793Y422756D01*
X26277Y426240D01*
X26299Y426268D01*
X26326Y426291D01*
X26406Y426403D01*
X26492Y426511D01*
X26507Y426543D01*
X26527Y426572D01*
X26580Y426699D01*
X26639Y426824D01*
X26646Y426859D01*
X26659Y426891D01*
X26681Y427028D01*
X26710Y427162D01*
X26709Y427198D01*
X26715Y427233D01*
X26705Y427370D01*
X26702Y427508D01*
X26693Y427542D01*
X26690Y427578D01*
X26649Y427709D01*
X26615Y427842D01*
X26598Y427874D01*
X26587Y427908D01*
X26517Y428027D01*
X26453Y428148D01*
X26430Y428175D01*
X26412Y428205D01*
X26277Y428360D01*
X22793Y431844D01*
X20601Y437136D01*
X20601Y442864D01*
X22793Y448156D01*
X26844Y452207D01*
X32136Y454399D01*
X37864Y454399D01*
X43156Y452207D01*
X47207Y448156D01*
X49399Y442864D01*
X49399Y440416D01*
X49415Y440277D01*
X49425Y440138D01*
X49435Y440106D01*
X49439Y440072D01*
X49486Y439941D01*
X49527Y439808D01*
X49545Y439779D01*
X49556Y439747D01*
X49632Y439630D01*
X49703Y439510D01*
X49733Y439476D01*
X49745Y439457D01*
X49769Y439434D01*
X49838Y439356D01*
X65511Y423682D01*
X66501Y421293D01*
X66501Y379184D01*
X66519Y379029D01*
X66533Y378873D01*
X66539Y378857D01*
X66541Y378840D01*
X66594Y378693D01*
X66643Y378545D01*
X66652Y378531D01*
X66658Y378515D01*
X66744Y378384D01*
X66826Y378252D01*
X66838Y378240D01*
X66847Y378225D01*
X66960Y378118D01*
X67071Y378007D01*
X67085Y377998D01*
X67097Y377987D01*
X67232Y377908D01*
X67365Y377826D01*
X67381Y377820D01*
X67395Y377812D01*
X67545Y377766D01*
X67693Y377716D01*
X67709Y377715D01*
X67726Y377710D01*
X67882Y377699D01*
X68037Y377685D01*
X68054Y377687D01*
X68071Y377686D01*
X68225Y377711D01*
X68379Y377733D01*
X68400Y377740D01*
X68412Y377742D01*
X68433Y377751D01*
X71542Y377751D01*
X74284Y376615D01*
X74302Y376610D01*
X74318Y376601D01*
X74468Y376562D01*
X74617Y376520D01*
X74635Y376519D01*
X74653Y376515D01*
X74858Y376501D01*
X208827Y376501D01*
X208836Y376502D01*
X208845Y376501D01*
X209008Y376522D01*
X209170Y376541D01*
X209179Y376544D01*
X209188Y376545D01*
X209342Y376603D01*
X209495Y376658D01*
X209503Y376663D01*
X209512Y376666D01*
X209648Y376758D01*
X209785Y376847D01*
X209791Y376854D01*
X209799Y376859D01*
X209910Y376978D01*
X210023Y377097D01*
X210028Y377105D01*
X210034Y377112D01*
X210116Y377254D01*
X210198Y377395D01*
X210201Y377404D01*
X210206Y377412D01*
X210232Y377501D01*
X215000Y377501D01*
X219768Y377501D01*
X219794Y377438D01*
X219856Y377285D01*
X219861Y377277D01*
X219865Y377269D01*
X219960Y377136D01*
X220054Y377002D01*
X220061Y376996D01*
X220067Y376989D01*
X220191Y376881D01*
X220313Y376772D01*
X220321Y376768D01*
X220328Y376762D01*
X220474Y376685D01*
X220617Y376608D01*
X220626Y376605D01*
X220634Y376601D01*
X220793Y376560D01*
X220951Y376517D01*
X220960Y376517D01*
X220969Y376515D01*
X221174Y376501D01*
X231686Y376501D01*
X231825Y376517D01*
X231964Y376527D01*
X231996Y376537D01*
X232030Y376541D01*
X232161Y376588D01*
X232294Y376629D01*
X232323Y376647D01*
X232355Y376658D01*
X232472Y376734D01*
X232592Y376805D01*
X232626Y376835D01*
X232645Y376847D01*
X232668Y376871D01*
X232746Y376940D01*
X250518Y394711D01*
X252907Y395701D01*
X271106Y395701D01*
X271193Y395711D01*
X271280Y395711D01*
X271364Y395731D01*
X271449Y395741D01*
X271532Y395770D01*
X271617Y395790D01*
X271694Y395829D01*
X271774Y395858D01*
X271848Y395906D01*
X271926Y395945D01*
X271992Y396000D01*
X272064Y396047D01*
X272124Y396110D01*
X272192Y396166D01*
X272243Y396235D01*
X272303Y396297D01*
X272347Y396373D01*
X272400Y396443D01*
X272464Y396571D01*
X272478Y396595D01*
X272481Y396607D01*
X272491Y396626D01*
X272793Y397356D01*
X276277Y400840D01*
X276299Y400868D01*
X276326Y400891D01*
X276406Y401003D01*
X276492Y401111D01*
X276507Y401143D01*
X276527Y401172D01*
X276580Y401299D01*
X276639Y401424D01*
X276646Y401459D01*
X276659Y401491D01*
X276681Y401628D01*
X276710Y401762D01*
X276709Y401798D01*
X276715Y401833D01*
X276705Y401970D01*
X276702Y402108D01*
X276693Y402142D01*
X276690Y402178D01*
X276649Y402309D01*
X276615Y402442D01*
X276598Y402474D01*
X276587Y402508D01*
X276517Y402627D01*
X276453Y402748D01*
X276430Y402775D01*
X276412Y402805D01*
X276277Y402960D01*
X272793Y406444D01*
X270601Y411736D01*
X270601Y417464D01*
X272793Y422756D01*
X276277Y426240D01*
X276299Y426268D01*
X276326Y426291D01*
X276406Y426403D01*
X276492Y426511D01*
X276507Y426543D01*
X276527Y426572D01*
X276580Y426699D01*
X276639Y426824D01*
X276646Y426859D01*
X276659Y426891D01*
X276681Y427028D01*
X276710Y427162D01*
X276709Y427198D01*
X276715Y427233D01*
X276705Y427370D01*
X276702Y427508D01*
X276693Y427542D01*
X276690Y427578D01*
X276649Y427709D01*
X276615Y427842D01*
X276598Y427874D01*
X276587Y427908D01*
X276517Y428027D01*
X276453Y428148D01*
X276430Y428175D01*
X276412Y428205D01*
X276277Y428360D01*
X272793Y431844D01*
X270601Y437136D01*
X270601Y442864D01*
X272793Y448156D01*
X276844Y452207D01*
X282136Y454399D01*
X287864Y454399D01*
X293156Y452207D01*
X297207Y448156D01*
X299399Y442864D01*
X299399Y437136D01*
X297207Y431844D01*
X293723Y428360D01*
X293701Y428332D01*
X293674Y428309D01*
X293594Y428197D01*
X293508Y428089D01*
X293493Y428057D01*
X293473Y428028D01*
X293420Y427901D01*
X293361Y427776D01*
X293354Y427741D01*
X293341Y427709D01*
X293319Y427572D01*
X293290Y427438D01*
X293291Y427402D01*
X293285Y427367D01*
X293295Y427230D01*
X293298Y427092D01*
X293307Y427058D01*
X293310Y427022D01*
X293351Y426891D01*
X293385Y426758D01*
X293402Y426726D01*
X293413Y426692D01*
X293483Y426574D01*
X293547Y426452D01*
X293570Y426425D01*
X293588Y426395D01*
X293723Y426240D01*
X297207Y422756D01*
X299399Y417464D01*
X299399Y411736D01*
X297207Y406444D01*
X293723Y402960D01*
X293701Y402932D01*
X293674Y402909D01*
X293594Y402797D01*
X293508Y402689D01*
X293493Y402657D01*
X293473Y402628D01*
X293420Y402501D01*
X293361Y402376D01*
X293354Y402341D01*
X293341Y402309D01*
X293319Y402172D01*
X293290Y402038D01*
X293291Y402002D01*
X293285Y401967D01*
X293295Y401830D01*
X293298Y401692D01*
X293307Y401658D01*
X293310Y401622D01*
X293351Y401491D01*
X293385Y401358D01*
X293402Y401326D01*
X293413Y401292D01*
X293483Y401174D01*
X293547Y401052D01*
X293570Y401025D01*
X293588Y400995D01*
X293723Y400840D01*
X297207Y397356D01*
X299399Y392064D01*
X299399Y386336D01*
X297207Y381044D01*
X293723Y377560D01*
X293701Y377532D01*
X293674Y377509D01*
X293594Y377397D01*
X293508Y377289D01*
X293493Y377257D01*
X293473Y377228D01*
X293420Y377101D01*
X293361Y376976D01*
X293354Y376941D01*
X293341Y376909D01*
X293319Y376772D01*
X293290Y376638D01*
X293291Y376602D01*
X293285Y376567D01*
X293295Y376430D01*
X293298Y376292D01*
X293307Y376258D01*
X293310Y376222D01*
X293351Y376091D01*
X293385Y375958D01*
X293402Y375926D01*
X293413Y375892D01*
X293483Y375774D01*
X293547Y375652D01*
X293570Y375625D01*
X293588Y375595D01*
X293723Y375440D01*
X297207Y371956D01*
X299399Y366664D01*
X299399Y360936D01*
X297207Y355644D01*
X293156Y351593D01*
X291221Y350792D01*
X291132Y350742D01*
X291040Y350702D01*
X290982Y350659D01*
X290919Y350623D01*
X290844Y350555D01*
X290763Y350495D01*
X290717Y350439D01*
X290663Y350390D01*
X290606Y350307D01*
X290541Y350230D01*
X290509Y350165D01*
X290468Y350105D01*
X290431Y350011D01*
X290386Y349921D01*
X290369Y349850D01*
X290343Y349783D01*
X290329Y349683D01*
X290306Y349584D01*
X290305Y349512D01*
X290295Y349440D01*
X290305Y349340D01*
X290304Y349239D01*
X290321Y349168D01*
X290328Y349096D01*
X290360Y349000D01*
X290383Y348902D01*
X290415Y348837D01*
X290438Y348768D01*
X290491Y348682D01*
X290536Y348592D01*
X290582Y348536D01*
X290620Y348474D01*
X290691Y348403D01*
X290756Y348325D01*
X290841Y348254D01*
X290865Y348230D01*
X290882Y348219D01*
X290913Y348194D01*
X292426Y347094D01*
X293694Y345826D01*
X294749Y344374D01*
X295564Y342776D01*
X296118Y341069D01*
X296139Y340939D01*
X286040Y340939D01*
X286005Y340935D01*
X285970Y340938D01*
X285834Y340915D01*
X285697Y340899D01*
X285663Y340887D01*
X285628Y340882D01*
X285501Y340829D01*
X285372Y340782D01*
X285342Y340763D01*
X285309Y340749D01*
X285197Y340668D01*
X285082Y340593D01*
X285058Y340567D01*
X285029Y340547D01*
X284998Y340511D01*
X284962Y340542D01*
X284863Y340637D01*
X284832Y340655D01*
X284805Y340678D01*
X284683Y340742D01*
X284565Y340812D01*
X284531Y340822D01*
X284499Y340839D01*
X284366Y340873D01*
X284234Y340914D01*
X284199Y340916D01*
X284164Y340925D01*
X283960Y340939D01*
X273861Y340939D01*
X273882Y341069D01*
X274436Y342776D01*
X275251Y344374D01*
X276306Y345826D01*
X277574Y347094D01*
X279087Y348194D01*
X279161Y348262D01*
X279242Y348323D01*
X279288Y348378D01*
X279341Y348428D01*
X279398Y348511D01*
X279462Y348589D01*
X279495Y348654D01*
X279535Y348714D01*
X279571Y348808D01*
X279616Y348899D01*
X279633Y348969D01*
X279659Y349037D01*
X279672Y349137D01*
X279695Y349235D01*
X279695Y349308D01*
X279705Y349380D01*
X279695Y349480D01*
X279695Y349581D01*
X279678Y349652D01*
X279671Y349724D01*
X279638Y349819D01*
X279615Y349917D01*
X279583Y349982D01*
X279559Y350051D01*
X279506Y350136D01*
X279461Y350227D01*
X279414Y350282D01*
X279376Y350344D01*
X279304Y350415D01*
X279239Y350492D01*
X279182Y350536D01*
X279130Y350587D01*
X279044Y350640D01*
X278963Y350700D01*
X278864Y350750D01*
X278835Y350767D01*
X278815Y350774D01*
X278779Y350792D01*
X276844Y351593D01*
X272793Y355644D01*
X272786Y355661D01*
X272710Y355798D01*
X272637Y355936D01*
X272626Y355948D01*
X272618Y355963D01*
X272513Y356079D01*
X272410Y356196D01*
X272396Y356206D01*
X272385Y356219D01*
X272256Y356307D01*
X272129Y356398D01*
X272114Y356404D01*
X272100Y356414D01*
X271954Y356470D01*
X271810Y356530D01*
X271793Y356533D01*
X271777Y356539D01*
X271623Y356560D01*
X271468Y356585D01*
X271452Y356584D01*
X271435Y356586D01*
X271280Y356572D01*
X271124Y356561D01*
X271107Y356556D01*
X271091Y356554D01*
X270943Y356504D01*
X270793Y356458D01*
X270779Y356449D01*
X270763Y356444D01*
X270630Y356362D01*
X270496Y356282D01*
X270479Y356268D01*
X270469Y356262D01*
X270450Y356242D01*
X270341Y356148D01*
X246940Y332746D01*
X246853Y332637D01*
X246762Y332532D01*
X246746Y332502D01*
X246725Y332475D01*
X246666Y332349D01*
X246601Y332226D01*
X246593Y332193D01*
X246578Y332162D01*
X246550Y332026D01*
X246515Y331891D01*
X246512Y331846D01*
X246507Y331824D01*
X246508Y331790D01*
X246501Y331686D01*
X246501Y293707D01*
X245511Y291318D01*
X243472Y289278D01*
X243471Y289278D01*
X230722Y276529D01*
X230722Y276528D01*
X228682Y274489D01*
X226293Y273499D01*
X78355Y273499D01*
X78200Y273481D01*
X78045Y273467D01*
X78029Y273461D01*
X78012Y273459D01*
X77865Y273406D01*
X77717Y273357D01*
X77703Y273348D01*
X77687Y273342D01*
X77556Y273257D01*
X77423Y273174D01*
X77411Y273162D01*
X77397Y273153D01*
X77289Y273040D01*
X77179Y272930D01*
X77170Y272915D01*
X77158Y272903D01*
X77080Y272769D01*
X76997Y272635D01*
X76992Y272619D01*
X76983Y272605D01*
X76937Y272456D01*
X76888Y272307D01*
X76886Y272291D01*
X76881Y272274D01*
X76871Y272118D01*
X76856Y271963D01*
X76859Y271946D01*
X76858Y271929D01*
X76883Y271775D01*
X76905Y271621D01*
X76912Y271600D01*
X76914Y271588D01*
X76924Y271563D01*
X76970Y271426D01*
X77751Y269542D01*
X77751Y266458D01*
X76571Y263610D01*
X75521Y262560D01*
X75499Y262532D01*
X75473Y262509D01*
X75392Y262397D01*
X75307Y262289D01*
X75292Y262257D01*
X75271Y262228D01*
X75218Y262101D01*
X75160Y261976D01*
X75153Y261941D01*
X75139Y261909D01*
X75117Y261772D01*
X75089Y261638D01*
X75089Y261602D01*
X75084Y261567D01*
X75093Y261430D01*
X75097Y261292D01*
X75106Y261258D01*
X75108Y261222D01*
X75149Y261091D01*
X75184Y260958D01*
X75200Y260926D01*
X75211Y260892D01*
X75281Y260774D01*
X75345Y260652D01*
X75369Y260625D01*
X75387Y260595D01*
X75521Y260440D01*
X76571Y259390D01*
X77751Y256542D01*
X77751Y253458D01*
X76615Y250716D01*
X76610Y250698D01*
X76601Y250682D01*
X76562Y250532D01*
X76520Y250383D01*
X76519Y250365D01*
X76515Y250347D01*
X76501Y250142D01*
X76501Y123314D01*
X76517Y123175D01*
X76527Y123036D01*
X76537Y123004D01*
X76541Y122970D01*
X76588Y122839D01*
X76629Y122706D01*
X76647Y122677D01*
X76658Y122645D01*
X76734Y122528D01*
X76805Y122408D01*
X76835Y122374D01*
X76847Y122355D01*
X76871Y122332D01*
X76940Y122254D01*
X97254Y101940D01*
X97363Y101853D01*
X97468Y101762D01*
X97498Y101746D01*
X97525Y101725D01*
X97651Y101666D01*
X97774Y101601D01*
X97807Y101593D01*
X97838Y101578D01*
X97974Y101550D01*
X98109Y101515D01*
X98154Y101512D01*
X98176Y101507D01*
X98210Y101508D01*
X98314Y101501D01*
X145995Y101501D01*
X146047Y101507D01*
X146099Y101504D01*
X146218Y101527D01*
X146338Y101541D01*
X146387Y101558D01*
X146439Y101568D01*
X146549Y101617D01*
X146663Y101658D01*
X146707Y101687D01*
X146755Y101708D01*
X146851Y101781D01*
X146953Y101847D01*
X146989Y101885D01*
X147031Y101916D01*
X147108Y102009D01*
X147192Y102097D01*
X147218Y102142D01*
X147251Y102183D01*
X147305Y102291D01*
X147367Y102395D01*
X147382Y102445D01*
X147405Y102492D01*
X147433Y102610D01*
X147469Y102726D01*
X147472Y102778D01*
X147484Y102829D01*
X147484Y102950D01*
X147492Y103071D01*
X147484Y103122D01*
X147484Y103175D01*
X147456Y103292D01*
X147436Y103412D01*
X147416Y103460D01*
X147404Y103511D01*
X147350Y103619D01*
X147304Y103731D01*
X147273Y103773D01*
X147250Y103820D01*
X147172Y103913D01*
X147101Y104011D01*
X147062Y104046D01*
X147028Y104086D01*
X146932Y104159D01*
X146840Y104238D01*
X146794Y104262D01*
X146752Y104294D01*
X146568Y104385D01*
X146318Y104489D01*
X141296Y109510D01*
X141187Y109597D01*
X141082Y109688D01*
X141052Y109704D01*
X141025Y109725D01*
X140899Y109784D01*
X140776Y109849D01*
X140743Y109857D01*
X140712Y109872D01*
X140576Y109900D01*
X140441Y109935D01*
X140396Y109938D01*
X140374Y109943D01*
X140340Y109942D01*
X140236Y109949D01*
X138613Y109949D01*
X134294Y111738D01*
X130988Y115044D01*
X129199Y119363D01*
X129199Y124037D01*
X130988Y128356D01*
X134294Y131662D01*
X136358Y132517D01*
X136494Y132593D01*
X136633Y132666D01*
X136645Y132677D01*
X136660Y132685D01*
X136776Y132791D01*
X136893Y132893D01*
X136903Y132907D01*
X136916Y132918D01*
X137004Y133047D01*
X137095Y133174D01*
X137101Y133189D01*
X137111Y133203D01*
X137167Y133349D01*
X137227Y133493D01*
X137230Y133510D01*
X137236Y133526D01*
X137257Y133681D01*
X137282Y133835D01*
X137281Y133852D01*
X137283Y133868D01*
X137269Y134023D01*
X137258Y134180D01*
X137253Y134196D01*
X137251Y134213D01*
X137201Y134360D01*
X137155Y134510D01*
X137146Y134524D01*
X137141Y134540D01*
X137059Y134673D01*
X136979Y134807D01*
X136965Y134824D01*
X136959Y134834D01*
X136939Y134854D01*
X136844Y134962D01*
X135446Y136360D01*
X135378Y136415D01*
X135316Y136476D01*
X135243Y136521D01*
X135175Y136575D01*
X135096Y136612D01*
X135022Y136658D01*
X134940Y136685D01*
X134862Y136722D01*
X134777Y136740D01*
X134694Y136767D01*
X134608Y136775D01*
X134524Y136793D01*
X134436Y136791D01*
X134349Y136799D01*
X134264Y136787D01*
X134178Y136785D01*
X134094Y136763D01*
X134007Y136751D01*
X133871Y136705D01*
X133844Y136698D01*
X133833Y136692D01*
X133813Y136685D01*
X130587Y135349D01*
X125913Y135349D01*
X121594Y137138D01*
X118288Y140444D01*
X116499Y144763D01*
X116499Y149437D01*
X118288Y153756D01*
X121594Y157062D01*
X125913Y158851D01*
X130587Y158851D01*
X132426Y158089D01*
X132576Y158046D01*
X132726Y158000D01*
X132743Y157999D01*
X132759Y157994D01*
X132914Y157987D01*
X133071Y157977D01*
X133087Y157979D01*
X133104Y157979D01*
X133258Y158007D01*
X133412Y158033D01*
X133427Y158039D01*
X133444Y158042D01*
X133587Y158105D01*
X133731Y158165D01*
X133745Y158175D01*
X133760Y158182D01*
X133885Y158276D01*
X134011Y158367D01*
X134023Y158380D01*
X134036Y158390D01*
X134135Y158510D01*
X134238Y158629D01*
X134246Y158644D01*
X134257Y158657D01*
X134326Y158796D01*
X134399Y158935D01*
X134403Y158951D01*
X134411Y158966D01*
X134446Y159118D01*
X134485Y159269D01*
X134487Y159291D01*
X134489Y159303D01*
X134489Y159331D01*
X134499Y159474D01*
X134499Y175686D01*
X134483Y175825D01*
X134473Y175964D01*
X134463Y175996D01*
X134459Y176030D01*
X134412Y176161D01*
X134371Y176294D01*
X134353Y176323D01*
X134342Y176355D01*
X134266Y176472D01*
X134195Y176592D01*
X134165Y176626D01*
X134153Y176645D01*
X134129Y176668D01*
X134060Y176746D01*
X114889Y195918D01*
X114737Y196285D01*
X114669Y196407D01*
X114606Y196532D01*
X114585Y196558D01*
X114568Y196588D01*
X114474Y196691D01*
X114385Y196798D01*
X114358Y196818D01*
X114335Y196843D01*
X114220Y196922D01*
X114109Y197006D01*
X114068Y197026D01*
X114050Y197038D01*
X114019Y197050D01*
X113925Y197097D01*
X112244Y197793D01*
X108760Y201277D01*
X108732Y201299D01*
X108709Y201326D01*
X108597Y201406D01*
X108489Y201492D01*
X108457Y201507D01*
X108428Y201527D01*
X108301Y201580D01*
X108176Y201639D01*
X108141Y201646D01*
X108109Y201659D01*
X107972Y201681D01*
X107838Y201710D01*
X107802Y201709D01*
X107767Y201715D01*
X107630Y201705D01*
X107492Y201702D01*
X107458Y201693D01*
X107422Y201690D01*
X107291Y201649D01*
X107158Y201615D01*
X107126Y201598D01*
X107092Y201587D01*
X106974Y201517D01*
X106852Y201453D01*
X106825Y201430D01*
X106795Y201412D01*
X106640Y201277D01*
X103156Y197793D01*
X97864Y195601D01*
X92136Y195601D01*
X86844Y197793D01*
X82793Y201844D01*
X80601Y207136D01*
X80601Y212864D01*
X82793Y218156D01*
X86844Y222207D01*
X92136Y224399D01*
X97864Y224399D01*
X103156Y222207D01*
X106640Y218723D01*
X106668Y218701D01*
X106691Y218674D01*
X106803Y218594D01*
X106911Y218508D01*
X106943Y218493D01*
X106972Y218473D01*
X107099Y218420D01*
X107224Y218361D01*
X107259Y218354D01*
X107291Y218341D01*
X107428Y218319D01*
X107562Y218290D01*
X107598Y218291D01*
X107633Y218285D01*
X107770Y218295D01*
X107908Y218298D01*
X107942Y218307D01*
X107978Y218310D01*
X108109Y218351D01*
X108242Y218385D01*
X108274Y218402D01*
X108308Y218413D01*
X108427Y218483D01*
X108548Y218547D01*
X108575Y218570D01*
X108605Y218588D01*
X108760Y218723D01*
X112244Y222207D01*
X117536Y224399D01*
X123264Y224399D01*
X128556Y222207D01*
X132040Y218723D01*
X132068Y218701D01*
X132091Y218674D01*
X132203Y218594D01*
X132311Y218508D01*
X132343Y218493D01*
X132372Y218473D01*
X132499Y218420D01*
X132624Y218361D01*
X132659Y218354D01*
X132691Y218341D01*
X132828Y218319D01*
X132962Y218290D01*
X132998Y218291D01*
X133033Y218285D01*
X133170Y218295D01*
X133308Y218298D01*
X133342Y218307D01*
X133378Y218310D01*
X133509Y218351D01*
X133642Y218385D01*
X133674Y218402D01*
X133708Y218413D01*
X133827Y218483D01*
X133948Y218547D01*
X133975Y218570D01*
X134005Y218588D01*
X134160Y218723D01*
X137644Y222207D01*
X142936Y224399D01*
X148664Y224399D01*
X152550Y222789D01*
X152650Y222761D01*
X152746Y222723D01*
X152815Y222714D01*
X152883Y222694D01*
X152986Y222690D01*
X153088Y222675D01*
X153158Y222682D01*
X153228Y222679D01*
X153329Y222698D01*
X153432Y222707D01*
X153499Y222729D01*
X153568Y222742D01*
X153662Y222784D01*
X153760Y222817D01*
X153820Y222854D01*
X153884Y222882D01*
X153966Y222944D01*
X154054Y222998D01*
X154133Y223070D01*
X154160Y223090D01*
X154174Y223107D01*
X154206Y223136D01*
X159267Y228414D01*
X159269Y228416D01*
X159271Y228418D01*
X159367Y228546D01*
X159413Y228606D01*
X160344Y229538D01*
X160351Y229546D01*
X160366Y229560D01*
X161252Y230484D01*
X162435Y230974D01*
X162445Y230979D01*
X162464Y230986D01*
X163118Y231273D01*
X163239Y231344D01*
X163363Y231410D01*
X163388Y231431D01*
X163416Y231448D01*
X163518Y231545D01*
X163624Y231637D01*
X163643Y231664D01*
X163667Y231686D01*
X163744Y231804D01*
X163826Y231918D01*
X163838Y231948D01*
X163856Y231975D01*
X163904Y232107D01*
X163958Y232237D01*
X163963Y232270D01*
X163974Y232300D01*
X163990Y232440D01*
X164013Y232579D01*
X164011Y232611D01*
X164014Y232644D01*
X163998Y232784D01*
X163988Y232924D01*
X163979Y232955D01*
X163975Y232987D01*
X163928Y233120D01*
X163886Y233254D01*
X163869Y233282D01*
X163858Y233313D01*
X163782Y233430D01*
X163710Y233552D01*
X163681Y233584D01*
X163670Y233603D01*
X163645Y233626D01*
X163575Y233706D01*
X163310Y233972D01*
X162790Y234750D01*
X162479Y235501D01*
X167000Y235501D01*
X171521Y235501D01*
X171210Y234750D01*
X170650Y233911D01*
X170642Y233903D01*
X170625Y233874D01*
X170608Y233849D01*
X170603Y233838D01*
X170565Y233790D01*
X170520Y233695D01*
X170467Y233605D01*
X170447Y233539D01*
X170418Y233477D01*
X170396Y233375D01*
X170365Y233274D01*
X170360Y233206D01*
X170346Y233139D01*
X170348Y233034D01*
X170341Y232929D01*
X170352Y232862D01*
X170354Y232794D01*
X170380Y232692D01*
X170397Y232588D01*
X170423Y232525D01*
X170441Y232459D01*
X170490Y232366D01*
X170530Y232269D01*
X170570Y232213D01*
X170602Y232153D01*
X170671Y232074D01*
X170732Y231989D01*
X170784Y231944D01*
X170829Y231892D01*
X170914Y231831D01*
X170993Y231762D01*
X171054Y231730D01*
X171109Y231690D01*
X171206Y231650D01*
X171299Y231601D01*
X171366Y231584D01*
X171429Y231558D01*
X171532Y231541D01*
X171634Y231515D01*
X171737Y231508D01*
X171770Y231502D01*
X171793Y231504D01*
X171839Y231501D01*
X191293Y231501D01*
X193682Y230511D01*
X199818Y224376D01*
X199832Y224364D01*
X199844Y224350D01*
X199968Y224257D01*
X200089Y224161D01*
X200105Y224153D01*
X200120Y224142D01*
X200304Y224051D01*
X204756Y222207D01*
X208240Y218723D01*
X208268Y218701D01*
X208291Y218674D01*
X208403Y218594D01*
X208511Y218508D01*
X208543Y218493D01*
X208572Y218473D01*
X208699Y218420D01*
X208824Y218361D01*
X208859Y218354D01*
X208891Y218341D01*
X209028Y218319D01*
X209162Y218290D01*
X209198Y218291D01*
X209233Y218285D01*
X209370Y218295D01*
X209508Y218298D01*
X209542Y218307D01*
X209578Y218310D01*
X209709Y218351D01*
X209842Y218385D01*
X209874Y218402D01*
X209908Y218413D01*
X210027Y218483D01*
X210148Y218547D01*
X210175Y218570D01*
X210205Y218588D01*
X210360Y218723D01*
X213844Y222207D01*
X219136Y224399D01*
X224864Y224399D01*
X230156Y222207D01*
X234207Y218156D01*
X236399Y212864D01*
X236399Y207136D01*
X234207Y201844D01*
X230156Y197793D01*
X224864Y195601D01*
X219136Y195601D01*
X213844Y197793D01*
X210360Y201277D01*
X210332Y201299D01*
X210309Y201326D01*
X210197Y201406D01*
X210089Y201492D01*
X210057Y201507D01*
X210028Y201527D01*
X209901Y201580D01*
X209776Y201639D01*
X209741Y201646D01*
X209709Y201659D01*
X209572Y201681D01*
X209438Y201710D01*
X209402Y201709D01*
X209367Y201715D01*
X209230Y201705D01*
X209092Y201702D01*
X209058Y201693D01*
X209022Y201690D01*
X208891Y201649D01*
X208758Y201615D01*
X208726Y201598D01*
X208692Y201587D01*
X208574Y201517D01*
X208452Y201453D01*
X208425Y201430D01*
X208395Y201412D01*
X208240Y201277D01*
X204756Y197793D01*
X199464Y195601D01*
X197457Y195601D01*
X197302Y195583D01*
X197146Y195569D01*
X197130Y195563D01*
X197114Y195561D01*
X196966Y195508D01*
X196819Y195459D01*
X196804Y195450D01*
X196788Y195444D01*
X196657Y195358D01*
X196525Y195276D01*
X196513Y195264D01*
X196499Y195255D01*
X196391Y195142D01*
X196281Y195032D01*
X196272Y195017D01*
X196260Y195005D01*
X196181Y194870D01*
X196099Y194737D01*
X196094Y194721D01*
X196085Y194707D01*
X196039Y194558D01*
X195990Y194409D01*
X195988Y194393D01*
X195983Y194376D01*
X195972Y194220D01*
X195958Y194065D01*
X195961Y194048D01*
X195959Y194031D01*
X195985Y193877D01*
X196007Y193723D01*
X196014Y193702D01*
X196015Y193690D01*
X196026Y193665D01*
X196072Y193528D01*
X196501Y192493D01*
X196501Y138707D01*
X195511Y136318D01*
X194653Y135460D01*
X194557Y135338D01*
X194457Y135217D01*
X194449Y135202D01*
X194439Y135189D01*
X194372Y135047D01*
X194303Y134908D01*
X194299Y134891D01*
X194292Y134876D01*
X194260Y134723D01*
X194224Y134571D01*
X194224Y134554D01*
X194221Y134538D01*
X194224Y134381D01*
X194225Y134225D01*
X194228Y134209D01*
X194229Y134192D01*
X194268Y134041D01*
X194304Y133889D01*
X194312Y133874D01*
X194316Y133857D01*
X194388Y133720D01*
X194459Y133580D01*
X194469Y133567D01*
X194477Y133552D01*
X194580Y133434D01*
X194680Y133314D01*
X194693Y133304D01*
X194705Y133291D01*
X194831Y133200D01*
X194956Y133106D01*
X194976Y133096D01*
X194985Y133089D01*
X195011Y133079D01*
X195140Y133015D01*
X198406Y131662D01*
X201712Y128356D01*
X203501Y124037D01*
X203501Y119363D01*
X201712Y115044D01*
X198406Y111738D01*
X194087Y109949D01*
X189413Y109949D01*
X186612Y111109D01*
X186528Y111133D01*
X186447Y111167D01*
X186362Y111181D01*
X186279Y111204D01*
X186192Y111208D01*
X186105Y111222D01*
X186020Y111216D01*
X185934Y111220D01*
X185848Y111204D01*
X185760Y111198D01*
X185678Y111172D01*
X185594Y111156D01*
X185514Y111121D01*
X185430Y111095D01*
X185356Y111051D01*
X185278Y111017D01*
X185208Y110964D01*
X185133Y110919D01*
X185024Y110825D01*
X185002Y110808D01*
X184994Y110799D01*
X184978Y110784D01*
X180722Y106528D01*
X178682Y104489D01*
X178432Y104385D01*
X178386Y104360D01*
X178337Y104342D01*
X178235Y104276D01*
X178130Y104217D01*
X178091Y104182D01*
X178047Y104153D01*
X177964Y104066D01*
X177874Y103984D01*
X177845Y103941D01*
X177808Y103903D01*
X177747Y103799D01*
X177679Y103699D01*
X177660Y103650D01*
X177633Y103605D01*
X177598Y103489D01*
X177554Y103376D01*
X177547Y103324D01*
X177531Y103274D01*
X177523Y103154D01*
X177506Y103034D01*
X177511Y102982D01*
X177508Y102929D01*
X177527Y102810D01*
X177539Y102689D01*
X177555Y102640D01*
X177564Y102588D01*
X177610Y102476D01*
X177649Y102362D01*
X177676Y102317D01*
X177696Y102269D01*
X177767Y102171D01*
X177831Y102068D01*
X177868Y102031D01*
X177899Y101989D01*
X177990Y101909D01*
X178076Y101824D01*
X178120Y101796D01*
X178160Y101762D01*
X178267Y101706D01*
X178370Y101642D01*
X178420Y101625D01*
X178466Y101601D01*
X178583Y101571D01*
X178698Y101533D01*
X178750Y101528D01*
X178801Y101515D01*
X179005Y101501D01*
X231686Y101501D01*
X231825Y101517D01*
X231964Y101527D01*
X231996Y101537D01*
X232030Y101541D01*
X232161Y101588D01*
X232294Y101629D01*
X232323Y101647D01*
X232355Y101658D01*
X232472Y101734D01*
X232592Y101805D01*
X232626Y101835D01*
X232645Y101847D01*
X232668Y101871D01*
X232746Y101940D01*
X255918Y125111D01*
X258307Y126101D01*
X271106Y126101D01*
X271193Y126111D01*
X271280Y126111D01*
X271364Y126131D01*
X271449Y126141D01*
X271532Y126170D01*
X271617Y126190D01*
X271694Y126229D01*
X271774Y126258D01*
X271848Y126306D01*
X271926Y126345D01*
X271992Y126400D01*
X272064Y126447D01*
X272124Y126510D01*
X272192Y126566D01*
X272243Y126635D01*
X272303Y126697D01*
X272347Y126773D01*
X272400Y126843D01*
X272464Y126971D01*
X272478Y126995D01*
X272481Y127007D01*
X272491Y127026D01*
X272793Y127756D01*
X276277Y131240D01*
X276299Y131268D01*
X276326Y131291D01*
X276406Y131403D01*
X276492Y131511D01*
X276507Y131543D01*
X276527Y131572D01*
X276580Y131699D01*
X276639Y131824D01*
X276646Y131859D01*
X276659Y131891D01*
X276681Y132027D01*
X276710Y132162D01*
X276709Y132198D01*
X276715Y132233D01*
X276705Y132370D01*
X276702Y132508D01*
X276693Y132542D01*
X276690Y132578D01*
X276649Y132709D01*
X276615Y132842D01*
X276598Y132874D01*
X276587Y132908D01*
X276517Y133027D01*
X276453Y133148D01*
X276430Y133175D01*
X276412Y133205D01*
X276277Y133360D01*
X272793Y136844D01*
X270601Y142136D01*
X270601Y147864D01*
X272793Y153156D01*
X276844Y157207D01*
X282136Y159399D01*
X287864Y159399D01*
X293156Y157207D01*
X297207Y153156D01*
X299399Y147864D01*
X299399Y142136D01*
X297207Y136844D01*
X293723Y133360D01*
X293701Y133332D01*
X293674Y133309D01*
X293594Y133197D01*
X293508Y133089D01*
X293493Y133057D01*
X293473Y133028D01*
X293420Y132901D01*
X293361Y132776D01*
X293354Y132741D01*
X293341Y132709D01*
X293319Y132572D01*
X293290Y132438D01*
X293291Y132402D01*
X293285Y132367D01*
X293295Y132230D01*
X293298Y132092D01*
X293307Y132058D01*
X293310Y132022D01*
X293351Y131891D01*
X293385Y131758D01*
X293402Y131726D01*
X293413Y131692D01*
X293483Y131574D01*
X293547Y131452D01*
X293570Y131425D01*
X293588Y131395D01*
X293723Y131240D01*
X297207Y127756D01*
X299399Y122464D01*
X299399Y116736D01*
X297207Y111444D01*
X293156Y107393D01*
X291221Y106592D01*
X291132Y106542D01*
X291040Y106502D01*
X290982Y106459D01*
X290919Y106423D01*
X290844Y106355D01*
X290763Y106295D01*
X290717Y106239D01*
X290663Y106190D01*
X290606Y106107D01*
X290541Y106030D01*
X290509Y105965D01*
X290468Y105905D01*
X290431Y105811D01*
X290386Y105721D01*
X290369Y105650D01*
X290343Y105583D01*
X290329Y105483D01*
X290306Y105384D01*
X290305Y105312D01*
X290295Y105240D01*
X290305Y105140D01*
X290304Y105039D01*
X290321Y104968D01*
X290328Y104896D01*
X290360Y104800D01*
X290383Y104702D01*
X290415Y104637D01*
X290438Y104568D01*
X290491Y104482D01*
X290536Y104392D01*
X290582Y104336D01*
X290620Y104274D01*
X290691Y104203D01*
X290756Y104125D01*
X290841Y104054D01*
X290865Y104030D01*
X290882Y104019D01*
X290913Y103994D01*
X292426Y102894D01*
X293694Y101626D01*
X294749Y100174D01*
X295564Y98576D01*
X296118Y96869D01*
X296139Y96739D01*
X286040Y96739D01*
X286005Y96735D01*
X285970Y96738D01*
X285834Y96715D01*
X285697Y96699D01*
X285663Y96687D01*
X285628Y96682D01*
X285501Y96629D01*
X285372Y96582D01*
X285342Y96563D01*
X285309Y96549D01*
X285197Y96468D01*
X285082Y96393D01*
X285058Y96367D01*
X285029Y96347D01*
X284998Y96311D01*
X284962Y96342D01*
X284863Y96437D01*
X284832Y96455D01*
X284805Y96478D01*
X284683Y96542D01*
X284565Y96612D01*
X284531Y96622D01*
X284499Y96639D01*
X284366Y96673D01*
X284234Y96714D01*
X284199Y96716D01*
X284164Y96725D01*
X283960Y96739D01*
X273861Y96739D01*
X273882Y96869D01*
X274436Y98576D01*
X275251Y100174D01*
X276306Y101626D01*
X277574Y102894D01*
X279087Y103994D01*
X279161Y104062D01*
X279242Y104123D01*
X279288Y104178D01*
X279341Y104228D01*
X279398Y104311D01*
X279462Y104389D01*
X279495Y104454D01*
X279535Y104514D01*
X279571Y104608D01*
X279616Y104699D01*
X279633Y104769D01*
X279659Y104837D01*
X279672Y104937D01*
X279695Y105035D01*
X279695Y105108D01*
X279705Y105180D01*
X279695Y105280D01*
X279695Y105381D01*
X279678Y105452D01*
X279671Y105524D01*
X279638Y105619D01*
X279615Y105717D01*
X279583Y105782D01*
X279559Y105851D01*
X279506Y105936D01*
X279461Y106027D01*
X279414Y106082D01*
X279376Y106144D01*
X279304Y106215D01*
X279239Y106292D01*
X279182Y106336D01*
X279130Y106387D01*
X279044Y106440D01*
X278963Y106500D01*
X278864Y106550D01*
X278835Y106567D01*
X278815Y106574D01*
X278779Y106592D01*
X276844Y107393D01*
X272793Y111444D01*
X272491Y112174D01*
X272448Y112250D01*
X272415Y112331D01*
X272365Y112401D01*
X272323Y112476D01*
X272264Y112540D01*
X272213Y112611D01*
X272148Y112668D01*
X272090Y112731D01*
X272018Y112781D01*
X271951Y112838D01*
X271875Y112878D01*
X271804Y112927D01*
X271723Y112958D01*
X271645Y112999D01*
X271562Y113020D01*
X271482Y113051D01*
X271395Y113063D01*
X271311Y113085D01*
X271167Y113095D01*
X271140Y113099D01*
X271128Y113098D01*
X271106Y113099D01*
X262914Y113099D01*
X262775Y113083D01*
X262636Y113073D01*
X262604Y113063D01*
X262570Y113059D01*
X262439Y113012D01*
X262306Y112971D01*
X262277Y112953D01*
X262245Y112942D01*
X262128Y112866D01*
X262008Y112795D01*
X261974Y112765D01*
X261955Y112753D01*
X261932Y112729D01*
X261854Y112660D01*
X238682Y89489D01*
X236293Y88499D01*
X93707Y88499D01*
G37*
%LPD*%
G36*
X58002Y265821D02*
X58002Y265821D01*
X58071Y265816D01*
X58173Y265833D01*
X58278Y265840D01*
X58344Y265861D01*
X58412Y265872D01*
X58508Y265912D01*
X58608Y265943D01*
X58667Y265978D01*
X58731Y266005D01*
X58816Y266066D01*
X58905Y266119D01*
X58984Y266187D01*
X59011Y266207D01*
X59026Y266224D01*
X59060Y266254D01*
X61968Y269162D01*
X61980Y269176D01*
X61994Y269188D01*
X62087Y269312D01*
X62183Y269433D01*
X62191Y269450D01*
X62202Y269464D01*
X62293Y269648D01*
X63429Y272390D01*
X63882Y272843D01*
X63904Y272871D01*
X63930Y272894D01*
X64011Y273006D01*
X64096Y273114D01*
X64111Y273146D01*
X64132Y273175D01*
X64185Y273302D01*
X64243Y273427D01*
X64251Y273462D01*
X64264Y273494D01*
X64286Y273631D01*
X64314Y273765D01*
X64314Y273801D01*
X64319Y273836D01*
X64310Y273973D01*
X64306Y274111D01*
X64297Y274145D01*
X64295Y274181D01*
X64254Y274312D01*
X64219Y274445D01*
X64203Y274477D01*
X64192Y274511D01*
X64122Y274629D01*
X64058Y274751D01*
X64034Y274778D01*
X64016Y274809D01*
X63882Y274963D01*
X63235Y275610D01*
X62055Y278458D01*
X62055Y281542D01*
X63235Y284390D01*
X65416Y286571D01*
X68264Y287751D01*
X71348Y287751D01*
X74090Y286615D01*
X74108Y286610D01*
X74124Y286601D01*
X74274Y286562D01*
X74423Y286520D01*
X74441Y286519D01*
X74459Y286515D01*
X74664Y286501D01*
X221686Y286501D01*
X221825Y286517D01*
X221964Y286527D01*
X221996Y286537D01*
X222030Y286541D01*
X222161Y286588D01*
X222294Y286629D01*
X222323Y286647D01*
X222355Y286658D01*
X222472Y286734D01*
X222592Y286805D01*
X222626Y286835D01*
X222645Y286847D01*
X222668Y286871D01*
X222746Y286940D01*
X233060Y297254D01*
X233147Y297363D01*
X233238Y297468D01*
X233254Y297498D01*
X233275Y297525D01*
X233334Y297651D01*
X233399Y297774D01*
X233407Y297807D01*
X233422Y297838D01*
X233450Y297974D01*
X233485Y298109D01*
X233488Y298154D01*
X233493Y298176D01*
X233492Y298210D01*
X233499Y298314D01*
X233499Y336293D01*
X234489Y338682D01*
X265118Y369311D01*
X267507Y370301D01*
X271106Y370301D01*
X271193Y370311D01*
X271280Y370311D01*
X271364Y370331D01*
X271449Y370341D01*
X271532Y370370D01*
X271617Y370390D01*
X271694Y370429D01*
X271774Y370458D01*
X271848Y370506D01*
X271926Y370545D01*
X271992Y370600D01*
X272064Y370647D01*
X272124Y370710D01*
X272192Y370766D01*
X272243Y370835D01*
X272303Y370897D01*
X272347Y370973D01*
X272400Y371043D01*
X272464Y371171D01*
X272478Y371195D01*
X272481Y371207D01*
X272491Y371226D01*
X272793Y371956D01*
X276277Y375440D01*
X276299Y375468D01*
X276326Y375491D01*
X276406Y375603D01*
X276492Y375711D01*
X276507Y375743D01*
X276527Y375772D01*
X276580Y375899D01*
X276639Y376024D01*
X276646Y376059D01*
X276659Y376091D01*
X276681Y376228D01*
X276710Y376362D01*
X276709Y376398D01*
X276715Y376433D01*
X276705Y376570D01*
X276702Y376708D01*
X276693Y376742D01*
X276690Y376778D01*
X276649Y376909D01*
X276615Y377042D01*
X276598Y377074D01*
X276587Y377108D01*
X276517Y377226D01*
X276453Y377348D01*
X276430Y377375D01*
X276412Y377405D01*
X276277Y377560D01*
X272793Y381044D01*
X272491Y381774D01*
X272448Y381850D01*
X272415Y381931D01*
X272365Y382001D01*
X272323Y382076D01*
X272264Y382140D01*
X272213Y382211D01*
X272148Y382268D01*
X272090Y382331D01*
X272018Y382381D01*
X271951Y382438D01*
X271875Y382478D01*
X271804Y382527D01*
X271723Y382558D01*
X271645Y382599D01*
X271562Y382620D01*
X271482Y382651D01*
X271395Y382663D01*
X271311Y382685D01*
X271167Y382695D01*
X271140Y382699D01*
X271128Y382698D01*
X271106Y382699D01*
X257514Y382699D01*
X257375Y382683D01*
X257236Y382673D01*
X257204Y382663D01*
X257170Y382659D01*
X257039Y382612D01*
X256906Y382571D01*
X256877Y382553D01*
X256845Y382542D01*
X256728Y382466D01*
X256608Y382395D01*
X256574Y382365D01*
X256555Y382353D01*
X256532Y382329D01*
X256454Y382260D01*
X238682Y364489D01*
X236293Y363499D01*
X100847Y363499D01*
X100795Y363493D01*
X100742Y363496D01*
X100623Y363473D01*
X100503Y363459D01*
X100454Y363442D01*
X100403Y363432D01*
X100292Y363383D01*
X100178Y363342D01*
X100134Y363313D01*
X100086Y363292D01*
X99990Y363219D01*
X99888Y363153D01*
X99852Y363115D01*
X99811Y363084D01*
X99733Y362990D01*
X99650Y362903D01*
X99623Y362858D01*
X99590Y362818D01*
X99536Y362709D01*
X99475Y362605D01*
X99459Y362555D01*
X99436Y362508D01*
X99408Y362390D01*
X99373Y362274D01*
X99369Y362222D01*
X99357Y362171D01*
X99357Y362050D01*
X99349Y361929D01*
X99357Y361878D01*
X99358Y361825D01*
X99385Y361708D01*
X99405Y361588D01*
X99425Y361540D01*
X99437Y361489D01*
X99491Y361381D01*
X99538Y361269D01*
X99568Y361227D01*
X99592Y361180D01*
X99669Y361087D01*
X99740Y360989D01*
X99779Y360954D01*
X99813Y360914D01*
X99910Y360841D01*
X100001Y360762D01*
X100047Y360738D01*
X100089Y360706D01*
X100273Y360615D01*
X101250Y360210D01*
X102028Y359690D01*
X102690Y359028D01*
X103210Y358250D01*
X103521Y357499D01*
X99000Y357499D01*
X94479Y357499D01*
X94790Y358250D01*
X95310Y359028D01*
X95972Y359690D01*
X96750Y360210D01*
X97727Y360615D01*
X97773Y360640D01*
X97822Y360658D01*
X97923Y360724D01*
X98029Y360783D01*
X98068Y360818D01*
X98112Y360847D01*
X98195Y360934D01*
X98285Y361016D01*
X98314Y361059D01*
X98350Y361097D01*
X98411Y361201D01*
X98480Y361301D01*
X98499Y361350D01*
X98525Y361395D01*
X98561Y361511D01*
X98605Y361624D01*
X98612Y361676D01*
X98627Y361726D01*
X98636Y361846D01*
X98652Y361966D01*
X98647Y362018D01*
X98651Y362071D01*
X98631Y362190D01*
X98620Y362311D01*
X98603Y362360D01*
X98595Y362412D01*
X98549Y362523D01*
X98510Y362638D01*
X98482Y362683D01*
X98462Y362731D01*
X98392Y362829D01*
X98328Y362932D01*
X98291Y362969D01*
X98260Y363011D01*
X98169Y363091D01*
X98083Y363176D01*
X98038Y363204D01*
X97999Y363238D01*
X97892Y363294D01*
X97789Y363358D01*
X97739Y363374D01*
X97693Y363399D01*
X97575Y363429D01*
X97461Y363467D01*
X97409Y363472D01*
X97358Y363485D01*
X97153Y363499D01*
X74858Y363499D01*
X74839Y363497D01*
X74821Y363499D01*
X74668Y363477D01*
X74514Y363459D01*
X74497Y363453D01*
X74478Y363451D01*
X74284Y363385D01*
X71400Y362191D01*
X71392Y362186D01*
X71383Y362183D01*
X71242Y362103D01*
X71098Y362022D01*
X71091Y362016D01*
X71083Y362012D01*
X70965Y361901D01*
X70843Y361789D01*
X70837Y361782D01*
X70831Y361775D01*
X70740Y361639D01*
X70647Y361504D01*
X70644Y361495D01*
X70639Y361488D01*
X70582Y361334D01*
X70523Y361182D01*
X70521Y361172D01*
X70518Y361164D01*
X70498Y361001D01*
X70475Y360839D01*
X70476Y360830D01*
X70475Y360821D01*
X70492Y360657D01*
X70507Y360495D01*
X70510Y360486D01*
X70511Y360477D01*
X70565Y360322D01*
X70617Y360167D01*
X70622Y360159D01*
X70625Y360151D01*
X70727Y359973D01*
X71210Y359250D01*
X71521Y358499D01*
X68000Y358499D01*
X67965Y358495D01*
X67929Y358498D01*
X67793Y358475D01*
X67657Y358460D01*
X67623Y358447D01*
X67588Y358442D01*
X67461Y358389D01*
X67331Y358342D01*
X67302Y358323D01*
X67269Y358309D01*
X67157Y358229D01*
X67042Y358153D01*
X67017Y358128D01*
X66989Y358107D01*
X66898Y358003D01*
X66803Y357903D01*
X66785Y357873D01*
X66762Y357846D01*
X66698Y357723D01*
X66628Y357605D01*
X66618Y357571D01*
X66601Y357540D01*
X66567Y357406D01*
X66526Y357275D01*
X66524Y357239D01*
X66515Y357205D01*
X66501Y357000D01*
X66505Y356965D01*
X66502Y356930D01*
X66502Y356929D01*
X66525Y356793D01*
X66541Y356656D01*
X66553Y356623D01*
X66558Y356588D01*
X66611Y356461D01*
X66658Y356331D01*
X66677Y356301D01*
X66691Y356269D01*
X66772Y356157D01*
X66847Y356042D01*
X66873Y356017D01*
X66893Y355988D01*
X66997Y355898D01*
X67097Y355803D01*
X67128Y355785D01*
X67154Y355762D01*
X67277Y355698D01*
X67395Y355628D01*
X67429Y355618D01*
X67461Y355601D01*
X67594Y355567D01*
X67726Y355526D01*
X67761Y355523D01*
X67795Y355515D01*
X68000Y355501D01*
X71521Y355501D01*
X71210Y354750D01*
X70690Y353972D01*
X70028Y353310D01*
X69250Y352790D01*
X68386Y352432D01*
X67708Y352297D01*
X67649Y352278D01*
X67588Y352268D01*
X67485Y352225D01*
X67378Y352191D01*
X67326Y352159D01*
X67269Y352135D01*
X67178Y352070D01*
X67082Y352012D01*
X67038Y351969D01*
X66989Y351933D01*
X66915Y351849D01*
X66835Y351770D01*
X66802Y351719D01*
X66762Y351672D01*
X66710Y351573D01*
X66650Y351479D01*
X66630Y351420D01*
X66601Y351366D01*
X66573Y351258D01*
X66536Y351152D01*
X66530Y351091D01*
X66515Y351031D01*
X66501Y350826D01*
X66501Y329314D01*
X66517Y329175D01*
X66527Y329036D01*
X66537Y329004D01*
X66541Y328970D01*
X66588Y328839D01*
X66629Y328706D01*
X66647Y328677D01*
X66658Y328645D01*
X66734Y328528D01*
X66805Y328408D01*
X66835Y328374D01*
X66847Y328355D01*
X66871Y328332D01*
X66940Y328254D01*
X69162Y326032D01*
X69176Y326020D01*
X69188Y326006D01*
X69312Y325913D01*
X69433Y325817D01*
X69450Y325809D01*
X69464Y325798D01*
X69648Y325707D01*
X72390Y324571D01*
X74571Y322390D01*
X75751Y319542D01*
X75751Y319000D01*
X75755Y318965D01*
X75752Y318929D01*
X75775Y318793D01*
X75791Y318657D01*
X75803Y318623D01*
X75808Y318588D01*
X75861Y318461D01*
X75908Y318331D01*
X75927Y318302D01*
X75941Y318269D01*
X76022Y318157D01*
X76097Y318042D01*
X76123Y318017D01*
X76143Y317989D01*
X76247Y317898D01*
X76347Y317803D01*
X76378Y317785D01*
X76404Y317762D01*
X76527Y317698D01*
X76645Y317628D01*
X76679Y317618D01*
X76711Y317601D01*
X76844Y317567D01*
X76976Y317526D01*
X77011Y317524D01*
X77045Y317515D01*
X77250Y317501D01*
X197557Y317501D01*
X197575Y317503D01*
X197593Y317501D01*
X197746Y317523D01*
X197900Y317541D01*
X197917Y317547D01*
X197936Y317550D01*
X198130Y317615D01*
X198458Y317751D01*
X201542Y317751D01*
X204390Y316571D01*
X206571Y314390D01*
X207751Y311542D01*
X207751Y308458D01*
X206571Y305610D01*
X204390Y303429D01*
X201542Y302249D01*
X198458Y302249D01*
X198130Y302385D01*
X198112Y302390D01*
X198096Y302399D01*
X197946Y302438D01*
X197798Y302480D01*
X197779Y302481D01*
X197761Y302485D01*
X197557Y302499D01*
X72250Y302499D01*
X72215Y302495D01*
X72179Y302498D01*
X72043Y302475D01*
X71907Y302459D01*
X71873Y302447D01*
X71838Y302442D01*
X71711Y302389D01*
X71581Y302342D01*
X71552Y302323D01*
X71519Y302309D01*
X71407Y302228D01*
X71292Y302153D01*
X71267Y302127D01*
X71239Y302107D01*
X71148Y302003D01*
X71053Y301903D01*
X71035Y301872D01*
X71012Y301846D01*
X70948Y301723D01*
X70878Y301605D01*
X70868Y301571D01*
X70851Y301539D01*
X70817Y301406D01*
X70776Y301274D01*
X70774Y301239D01*
X70765Y301205D01*
X70751Y301000D01*
X70751Y299458D01*
X69571Y296610D01*
X67390Y294429D01*
X64542Y293249D01*
X61458Y293249D01*
X59544Y294042D01*
X59460Y294066D01*
X59379Y294099D01*
X59294Y294113D01*
X59212Y294137D01*
X59125Y294141D01*
X59038Y294155D01*
X58952Y294149D01*
X58866Y294153D01*
X58780Y294136D01*
X58693Y294130D01*
X58611Y294105D01*
X58527Y294089D01*
X58447Y294054D01*
X58363Y294028D01*
X58289Y293984D01*
X58210Y293949D01*
X58141Y293896D01*
X58065Y293852D01*
X57957Y293757D01*
X57935Y293741D01*
X57927Y293731D01*
X57910Y293717D01*
X56940Y292746D01*
X56853Y292637D01*
X56762Y292532D01*
X56746Y292502D01*
X56725Y292475D01*
X56666Y292349D01*
X56601Y292226D01*
X56593Y292193D01*
X56578Y292162D01*
X56550Y292026D01*
X56515Y291891D01*
X56512Y291846D01*
X56507Y291824D01*
X56508Y291790D01*
X56501Y291686D01*
X56501Y267314D01*
X56502Y267299D01*
X56503Y267298D01*
X56513Y267210D01*
X56515Y267106D01*
X56533Y267039D01*
X56541Y266970D01*
X56576Y266872D01*
X56602Y266771D01*
X56635Y266710D01*
X56658Y266645D01*
X56715Y266558D01*
X56764Y266465D01*
X56809Y266413D01*
X56847Y266355D01*
X56922Y266284D01*
X56991Y266205D01*
X57047Y266164D01*
X57097Y266117D01*
X57187Y266064D01*
X57272Y266003D01*
X57336Y265977D01*
X57395Y265942D01*
X57495Y265911D01*
X57591Y265871D01*
X57660Y265860D01*
X57726Y265840D01*
X57830Y265833D01*
X57933Y265816D01*
X58002Y265821D01*
G37*
%LPC*%
G36*
X282136Y165601D02*
X282136Y165601D01*
X276844Y167793D01*
X272793Y171844D01*
X270601Y177136D01*
X270601Y182864D01*
X272793Y188156D01*
X276277Y191640D01*
X276299Y191668D01*
X276326Y191691D01*
X276406Y191803D01*
X276492Y191911D01*
X276507Y191943D01*
X276527Y191972D01*
X276580Y192099D01*
X276639Y192224D01*
X276646Y192259D01*
X276659Y192291D01*
X276681Y192428D01*
X276710Y192562D01*
X276709Y192598D01*
X276715Y192633D01*
X276705Y192770D01*
X276702Y192908D01*
X276693Y192942D01*
X276690Y192978D01*
X276649Y193109D01*
X276615Y193242D01*
X276598Y193274D01*
X276587Y193308D01*
X276517Y193426D01*
X276453Y193548D01*
X276430Y193575D01*
X276412Y193605D01*
X276277Y193760D01*
X272793Y197244D01*
X270601Y202536D01*
X270601Y208264D01*
X272793Y213556D01*
X276277Y217040D01*
X276299Y217068D01*
X276326Y217091D01*
X276406Y217203D01*
X276492Y217311D01*
X276507Y217343D01*
X276527Y217372D01*
X276580Y217499D01*
X276639Y217624D01*
X276646Y217659D01*
X276659Y217691D01*
X276681Y217828D01*
X276710Y217962D01*
X276709Y217998D01*
X276715Y218033D01*
X276705Y218170D01*
X276702Y218308D01*
X276693Y218342D01*
X276690Y218378D01*
X276649Y218509D01*
X276615Y218642D01*
X276598Y218674D01*
X276587Y218708D01*
X276517Y218826D01*
X276453Y218948D01*
X276430Y218975D01*
X276412Y219005D01*
X276277Y219160D01*
X272793Y222644D01*
X270601Y227936D01*
X270601Y233664D01*
X272793Y238956D01*
X276844Y243007D01*
X278779Y243808D01*
X278868Y243858D01*
X278960Y243898D01*
X279018Y243941D01*
X279081Y243977D01*
X279156Y244045D01*
X279237Y244105D01*
X279283Y244161D01*
X279337Y244210D01*
X279394Y244293D01*
X279459Y244370D01*
X279491Y244435D01*
X279532Y244495D01*
X279569Y244589D01*
X279614Y244679D01*
X279631Y244750D01*
X279657Y244817D01*
X279671Y244917D01*
X279694Y245016D01*
X279695Y245088D01*
X279705Y245160D01*
X279695Y245260D01*
X279696Y245361D01*
X279679Y245432D01*
X279672Y245504D01*
X279640Y245600D01*
X279617Y245698D01*
X279585Y245763D01*
X279562Y245832D01*
X279509Y245918D01*
X279464Y246008D01*
X279418Y246064D01*
X279380Y246126D01*
X279309Y246197D01*
X279244Y246275D01*
X279159Y246346D01*
X279135Y246370D01*
X279118Y246381D01*
X279087Y246406D01*
X277574Y247506D01*
X276306Y248774D01*
X275251Y250226D01*
X274436Y251824D01*
X273882Y253531D01*
X273861Y253661D01*
X283960Y253661D01*
X283995Y253665D01*
X284030Y253662D01*
X284166Y253685D01*
X284303Y253701D01*
X284337Y253713D01*
X284372Y253718D01*
X284499Y253771D01*
X284628Y253818D01*
X284658Y253837D01*
X284691Y253851D01*
X284803Y253932D01*
X284918Y254007D01*
X284942Y254033D01*
X284971Y254053D01*
X285002Y254089D01*
X285038Y254058D01*
X285137Y253963D01*
X285168Y253945D01*
X285195Y253922D01*
X285317Y253858D01*
X285435Y253788D01*
X285469Y253778D01*
X285501Y253761D01*
X285634Y253727D01*
X285766Y253686D01*
X285801Y253684D01*
X285836Y253675D01*
X286040Y253661D01*
X296139Y253661D01*
X296118Y253531D01*
X295564Y251824D01*
X294749Y250226D01*
X293694Y248774D01*
X292426Y247506D01*
X290913Y246406D01*
X290839Y246338D01*
X290758Y246277D01*
X290712Y246222D01*
X290659Y246172D01*
X290602Y246089D01*
X290538Y246011D01*
X290505Y245946D01*
X290465Y245886D01*
X290429Y245792D01*
X290384Y245701D01*
X290367Y245631D01*
X290341Y245563D01*
X290328Y245463D01*
X290305Y245365D01*
X290305Y245292D01*
X290295Y245220D01*
X290305Y245120D01*
X290305Y245019D01*
X290322Y244948D01*
X290329Y244876D01*
X290362Y244781D01*
X290385Y244683D01*
X290417Y244618D01*
X290441Y244549D01*
X290494Y244464D01*
X290539Y244373D01*
X290586Y244318D01*
X290624Y244256D01*
X290696Y244185D01*
X290761Y244108D01*
X290818Y244064D01*
X290870Y244013D01*
X290956Y243960D01*
X291037Y243900D01*
X291136Y243850D01*
X291165Y243833D01*
X291185Y243826D01*
X291221Y243808D01*
X293156Y243007D01*
X297207Y238956D01*
X299399Y233664D01*
X299399Y227936D01*
X297207Y222644D01*
X293723Y219160D01*
X293701Y219132D01*
X293674Y219109D01*
X293594Y218997D01*
X293508Y218889D01*
X293493Y218857D01*
X293473Y218828D01*
X293420Y218701D01*
X293361Y218576D01*
X293354Y218541D01*
X293341Y218509D01*
X293319Y218372D01*
X293290Y218238D01*
X293291Y218202D01*
X293285Y218167D01*
X293295Y218030D01*
X293298Y217892D01*
X293307Y217858D01*
X293310Y217822D01*
X293351Y217691D01*
X293385Y217558D01*
X293402Y217526D01*
X293413Y217492D01*
X293483Y217373D01*
X293547Y217252D01*
X293570Y217225D01*
X293588Y217195D01*
X293723Y217040D01*
X297207Y213556D01*
X299399Y208264D01*
X299399Y202536D01*
X297207Y197244D01*
X293723Y193760D01*
X293701Y193732D01*
X293674Y193709D01*
X293594Y193597D01*
X293508Y193489D01*
X293493Y193457D01*
X293473Y193428D01*
X293420Y193301D01*
X293361Y193176D01*
X293354Y193141D01*
X293341Y193109D01*
X293319Y192972D01*
X293290Y192838D01*
X293291Y192802D01*
X293285Y192767D01*
X293295Y192630D01*
X293298Y192492D01*
X293307Y192458D01*
X293310Y192422D01*
X293351Y192291D01*
X293385Y192158D01*
X293402Y192126D01*
X293413Y192092D01*
X293483Y191973D01*
X293547Y191852D01*
X293570Y191825D01*
X293588Y191795D01*
X293723Y191640D01*
X297207Y188156D01*
X299399Y182864D01*
X299399Y177136D01*
X297207Y171844D01*
X293156Y167793D01*
X287864Y165601D01*
X282136Y165601D01*
G37*
%LPD*%
%LPC*%
G36*
X100458Y380249D02*
X100458Y380249D01*
X97610Y381429D01*
X95429Y383610D01*
X94249Y386458D01*
X94249Y389542D01*
X95429Y392390D01*
X97610Y394571D01*
X100352Y395707D01*
X100368Y395716D01*
X100386Y395721D01*
X100519Y395800D01*
X100654Y395875D01*
X100668Y395887D01*
X100684Y395897D01*
X100838Y396032D01*
X144318Y439511D01*
X146707Y440501D01*
X205142Y440501D01*
X205161Y440503D01*
X205179Y440501D01*
X205332Y440523D01*
X205486Y440541D01*
X205503Y440547D01*
X205522Y440550D01*
X205716Y440615D01*
X208458Y441751D01*
X211542Y441751D01*
X214390Y440571D01*
X216571Y438390D01*
X217751Y435542D01*
X217751Y432458D01*
X216571Y429610D01*
X214390Y427429D01*
X211542Y426249D01*
X208458Y426249D01*
X205716Y427385D01*
X205698Y427390D01*
X205682Y427399D01*
X205532Y427438D01*
X205383Y427480D01*
X205365Y427481D01*
X205347Y427485D01*
X205142Y427499D01*
X151314Y427499D01*
X151175Y427483D01*
X151036Y427473D01*
X151004Y427463D01*
X150970Y427459D01*
X150839Y427412D01*
X150706Y427371D01*
X150677Y427353D01*
X150645Y427342D01*
X150528Y427266D01*
X150408Y427195D01*
X150374Y427165D01*
X150355Y427153D01*
X150332Y427129D01*
X150254Y427060D01*
X110032Y386838D01*
X110020Y386824D01*
X110006Y386812D01*
X109949Y386736D01*
X109927Y386713D01*
X109911Y386686D01*
X109817Y386567D01*
X109809Y386550D01*
X109798Y386536D01*
X109707Y386352D01*
X108571Y383610D01*
X106390Y381429D01*
X103542Y380249D01*
X100458Y380249D01*
G37*
%LPD*%
%LPC*%
G36*
X284962Y258342D02*
X284962Y258342D01*
X284863Y258437D01*
X284832Y258455D01*
X284805Y258478D01*
X284683Y258542D01*
X284565Y258612D01*
X284531Y258622D01*
X284499Y258639D01*
X284366Y258673D01*
X284234Y258714D01*
X284199Y258716D01*
X284164Y258725D01*
X283960Y258739D01*
X273861Y258739D01*
X273882Y258869D01*
X274436Y260575D01*
X275251Y262174D01*
X276306Y263626D01*
X277574Y264894D01*
X279087Y265993D01*
X279161Y266062D01*
X279242Y266123D01*
X279288Y266179D01*
X279341Y266228D01*
X279398Y266311D01*
X279462Y266389D01*
X279495Y266454D01*
X279535Y266514D01*
X279571Y266608D01*
X279616Y266699D01*
X279633Y266769D01*
X279659Y266837D01*
X279672Y266937D01*
X279695Y267035D01*
X279695Y267108D01*
X279705Y267179D01*
X279695Y267280D01*
X279695Y267381D01*
X279678Y267451D01*
X279671Y267524D01*
X279638Y267619D01*
X279615Y267717D01*
X279583Y267782D01*
X279559Y267851D01*
X279506Y267936D01*
X279461Y268027D01*
X279414Y268082D01*
X279376Y268144D01*
X279304Y268215D01*
X279239Y268292D01*
X279181Y268336D01*
X279130Y268387D01*
X279044Y268439D01*
X278963Y268500D01*
X278863Y268550D01*
X278835Y268567D01*
X278816Y268574D01*
X278779Y268592D01*
X276844Y269393D01*
X272793Y273444D01*
X270601Y278736D01*
X270601Y284464D01*
X272793Y289756D01*
X276277Y293240D01*
X276299Y293268D01*
X276326Y293291D01*
X276406Y293403D01*
X276492Y293511D01*
X276507Y293543D01*
X276527Y293572D01*
X276580Y293699D01*
X276639Y293824D01*
X276646Y293859D01*
X276659Y293891D01*
X276681Y294028D01*
X276710Y294162D01*
X276709Y294198D01*
X276715Y294233D01*
X276705Y294370D01*
X276702Y294508D01*
X276693Y294542D01*
X276690Y294578D01*
X276649Y294709D01*
X276615Y294842D01*
X276598Y294874D01*
X276587Y294908D01*
X276517Y295026D01*
X276453Y295148D01*
X276430Y295175D01*
X276412Y295205D01*
X276277Y295360D01*
X272793Y298844D01*
X270601Y304136D01*
X270601Y309864D01*
X272793Y315156D01*
X276844Y319207D01*
X282136Y321399D01*
X287864Y321399D01*
X293156Y319207D01*
X297207Y315156D01*
X299399Y309864D01*
X299399Y304136D01*
X297207Y298844D01*
X293723Y295360D01*
X293701Y295332D01*
X293674Y295309D01*
X293594Y295197D01*
X293508Y295089D01*
X293493Y295057D01*
X293473Y295028D01*
X293420Y294901D01*
X293361Y294776D01*
X293354Y294741D01*
X293341Y294709D01*
X293319Y294572D01*
X293290Y294438D01*
X293291Y294402D01*
X293285Y294367D01*
X293295Y294230D01*
X293298Y294092D01*
X293307Y294058D01*
X293310Y294022D01*
X293351Y293891D01*
X293385Y293758D01*
X293402Y293726D01*
X293413Y293692D01*
X293483Y293573D01*
X293547Y293452D01*
X293570Y293425D01*
X293588Y293395D01*
X293723Y293240D01*
X297207Y289756D01*
X299399Y284464D01*
X299399Y278736D01*
X297207Y273444D01*
X293156Y269393D01*
X291221Y268592D01*
X291132Y268542D01*
X291040Y268502D01*
X290982Y268459D01*
X290919Y268423D01*
X290844Y268355D01*
X290763Y268295D01*
X290717Y268239D01*
X290663Y268190D01*
X290606Y268107D01*
X290541Y268030D01*
X290509Y267965D01*
X290468Y267905D01*
X290431Y267811D01*
X290386Y267721D01*
X290369Y267650D01*
X290343Y267583D01*
X290329Y267483D01*
X290306Y267384D01*
X290305Y267312D01*
X290295Y267240D01*
X290305Y267140D01*
X290304Y267039D01*
X290321Y266968D01*
X290328Y266896D01*
X290360Y266800D01*
X290383Y266702D01*
X290415Y266637D01*
X290438Y266568D01*
X290491Y266482D01*
X290536Y266392D01*
X290582Y266336D01*
X290620Y266274D01*
X290691Y266203D01*
X290756Y266125D01*
X290841Y266054D01*
X290865Y266030D01*
X290882Y266019D01*
X290913Y265993D01*
X292426Y264894D01*
X293694Y263626D01*
X294749Y262174D01*
X295564Y260575D01*
X296118Y258869D01*
X296139Y258739D01*
X286040Y258739D01*
X286005Y258735D01*
X285970Y258738D01*
X285834Y258715D01*
X285697Y258699D01*
X285663Y258687D01*
X285628Y258682D01*
X285501Y258629D01*
X285372Y258582D01*
X285342Y258563D01*
X285309Y258549D01*
X285197Y258468D01*
X285082Y258393D01*
X285058Y258367D01*
X285029Y258347D01*
X284998Y258311D01*
X284962Y258342D01*
G37*
%LPD*%
%LPC*%
G36*
X104973Y36949D02*
X104973Y36949D01*
X97162Y40185D01*
X91185Y46162D01*
X87949Y53973D01*
X87949Y62427D01*
X91185Y70238D01*
X97162Y76215D01*
X104973Y79451D01*
X113427Y79451D01*
X121238Y76215D01*
X127215Y70238D01*
X130451Y62427D01*
X130451Y53973D01*
X127215Y46162D01*
X121238Y40185D01*
X113427Y36949D01*
X104973Y36949D01*
G37*
%LPD*%
%LPC*%
G36*
X206573Y36949D02*
X206573Y36949D01*
X198762Y40185D01*
X192785Y46162D01*
X189549Y53973D01*
X189549Y62427D01*
X192785Y70238D01*
X198762Y76215D01*
X206573Y79451D01*
X215027Y79451D01*
X222838Y76215D01*
X228815Y70238D01*
X232051Y62427D01*
X232051Y53973D01*
X228815Y46162D01*
X222838Y40185D01*
X215027Y36949D01*
X206573Y36949D01*
G37*
%LPD*%
%LPC*%
G36*
X37539Y335861D02*
X37539Y335861D01*
X46139Y335861D01*
X46118Y335731D01*
X45564Y334024D01*
X44749Y332426D01*
X43694Y330974D01*
X42426Y329706D01*
X40974Y328651D01*
X39376Y327836D01*
X37669Y327282D01*
X37539Y327261D01*
X37539Y335861D01*
G37*
%LPD*%
%LPC*%
G36*
X23861Y268739D02*
X23861Y268739D01*
X23882Y268869D01*
X24436Y270576D01*
X25251Y272174D01*
X26306Y273626D01*
X27574Y274894D01*
X29026Y275949D01*
X30624Y276764D01*
X32331Y277318D01*
X32461Y277339D01*
X32461Y268739D01*
X23861Y268739D01*
G37*
%LPD*%
%LPC*%
G36*
X287539Y335861D02*
X287539Y335861D01*
X296139Y335861D01*
X296118Y335731D01*
X295564Y334024D01*
X294749Y332426D01*
X293694Y330974D01*
X292426Y329706D01*
X290974Y328651D01*
X289376Y327836D01*
X287669Y327282D01*
X287539Y327261D01*
X287539Y335861D01*
G37*
%LPD*%
%LPC*%
G36*
X287539Y91661D02*
X287539Y91661D01*
X296139Y91661D01*
X296118Y91531D01*
X295564Y89824D01*
X294749Y88226D01*
X293694Y86774D01*
X292426Y85506D01*
X290974Y84451D01*
X289376Y83636D01*
X287669Y83082D01*
X287539Y83061D01*
X287539Y91661D01*
G37*
%LPD*%
%LPC*%
G36*
X282331Y83082D02*
X282331Y83082D01*
X280624Y83636D01*
X279026Y84451D01*
X277574Y85506D01*
X276306Y86774D01*
X275251Y88226D01*
X274436Y89824D01*
X273882Y91531D01*
X273861Y91661D01*
X282461Y91661D01*
X282461Y83061D01*
X282331Y83082D01*
G37*
%LPD*%
%LPC*%
G36*
X32331Y327282D02*
X32331Y327282D01*
X30624Y327836D01*
X29026Y328651D01*
X27574Y329706D01*
X26306Y330974D01*
X25251Y332426D01*
X24436Y334024D01*
X23882Y335731D01*
X23861Y335861D01*
X32461Y335861D01*
X32461Y327261D01*
X32331Y327282D01*
G37*
%LPD*%
%LPC*%
G36*
X282331Y327282D02*
X282331Y327282D01*
X280624Y327836D01*
X279026Y328651D01*
X277574Y329706D01*
X276306Y330974D01*
X275251Y332426D01*
X274436Y334024D01*
X273882Y335731D01*
X273861Y335861D01*
X282461Y335861D01*
X282461Y327261D01*
X282331Y327282D01*
G37*
%LPD*%
%LPC*%
G36*
X8499Y193499D02*
X8499Y193499D01*
X8499Y196521D01*
X9250Y196210D01*
X10028Y195690D01*
X10690Y195028D01*
X11210Y194250D01*
X11521Y193499D01*
X8499Y193499D01*
G37*
%LPD*%
%LPC*%
G36*
X168499Y238499D02*
X168499Y238499D01*
X168499Y241521D01*
X169250Y241210D01*
X170028Y240690D01*
X170690Y240028D01*
X171210Y239250D01*
X171521Y238499D01*
X168499Y238499D01*
G37*
%LPD*%
%LPC*%
G36*
X8499Y313499D02*
X8499Y313499D01*
X8499Y316521D01*
X9250Y316210D01*
X10028Y315690D01*
X10690Y315028D01*
X11210Y314250D01*
X11521Y313499D01*
X8499Y313499D01*
G37*
%LPD*%
%LPC*%
G36*
X233499Y238499D02*
X233499Y238499D01*
X233499Y241521D01*
X234250Y241210D01*
X235028Y240690D01*
X235690Y240028D01*
X236210Y239250D01*
X236521Y238499D01*
X233499Y238499D01*
G37*
%LPD*%
%LPC*%
G36*
X216499Y380499D02*
X216499Y380499D01*
X216499Y383521D01*
X217250Y383210D01*
X218028Y382690D01*
X218690Y382028D01*
X219210Y381250D01*
X219521Y380499D01*
X216499Y380499D01*
G37*
%LPD*%
%LPC*%
G36*
X88499Y238499D02*
X88499Y238499D01*
X88499Y241521D01*
X89250Y241210D01*
X90028Y240690D01*
X90690Y240028D01*
X91210Y239250D01*
X91521Y238499D01*
X88499Y238499D01*
G37*
%LPD*%
%LPC*%
G36*
X216499Y395499D02*
X216499Y395499D01*
X216499Y398521D01*
X217250Y398210D01*
X218028Y397690D01*
X218690Y397028D01*
X219210Y396250D01*
X219521Y395499D01*
X216499Y395499D01*
G37*
%LPD*%
%LPC*%
G36*
X8499Y368499D02*
X8499Y368499D01*
X8499Y371521D01*
X9250Y371210D01*
X10028Y370690D01*
X10690Y370028D01*
X11210Y369250D01*
X11521Y368499D01*
X8499Y368499D01*
G37*
%LPD*%
%LPC*%
G36*
X8499Y488499D02*
X8499Y488499D01*
X8499Y491521D01*
X9250Y491210D01*
X10028Y490690D01*
X10690Y490028D01*
X11210Y489250D01*
X11521Y488499D01*
X8499Y488499D01*
G37*
%LPD*%
%LPC*%
G36*
X216499Y335499D02*
X216499Y335499D01*
X216499Y338521D01*
X217250Y338210D01*
X218028Y337690D01*
X218690Y337028D01*
X219210Y336250D01*
X219521Y335499D01*
X216499Y335499D01*
G37*
%LPD*%
%LPC*%
G36*
X8499Y438499D02*
X8499Y438499D01*
X8499Y441521D01*
X9250Y441210D01*
X10028Y440690D01*
X10690Y440028D01*
X11210Y439250D01*
X11521Y438499D01*
X8499Y438499D01*
G37*
%LPD*%
%LPC*%
G36*
X151499Y470499D02*
X151499Y470499D01*
X151499Y473521D01*
X152250Y473210D01*
X153028Y472690D01*
X153690Y472028D01*
X154210Y471250D01*
X154521Y470499D01*
X151499Y470499D01*
G37*
%LPD*%
%LPC*%
G36*
X216499Y410499D02*
X216499Y410499D01*
X216499Y413521D01*
X217250Y413210D01*
X218028Y412690D01*
X218690Y412028D01*
X219210Y411250D01*
X219521Y410499D01*
X216499Y410499D01*
G37*
%LPD*%
%LPC*%
G36*
X171499Y470499D02*
X171499Y470499D01*
X171499Y473521D01*
X172250Y473210D01*
X173028Y472690D01*
X173690Y472028D01*
X174210Y471250D01*
X174521Y470499D01*
X171499Y470499D01*
G37*
%LPD*%
%LPC*%
G36*
X8499Y258499D02*
X8499Y258499D01*
X8499Y261521D01*
X9250Y261210D01*
X10028Y260690D01*
X10690Y260028D01*
X11210Y259250D01*
X11521Y258499D01*
X8499Y258499D01*
G37*
%LPD*%
%LPC*%
G36*
X208499Y178499D02*
X208499Y178499D01*
X208499Y181521D01*
X209250Y181210D01*
X210028Y180690D01*
X210690Y180028D01*
X211210Y179250D01*
X211521Y178499D01*
X208499Y178499D01*
G37*
%LPD*%
%LPC*%
G36*
X98499Y173499D02*
X98499Y173499D01*
X98499Y176521D01*
X99250Y176210D01*
X100028Y175690D01*
X100690Y175028D01*
X101210Y174250D01*
X101521Y173499D01*
X98499Y173499D01*
G37*
%LPD*%
%LPC*%
G36*
X8499Y133499D02*
X8499Y133499D01*
X8499Y136521D01*
X9250Y136210D01*
X10028Y135690D01*
X10690Y135028D01*
X11210Y134250D01*
X11521Y133499D01*
X8499Y133499D01*
G37*
%LPD*%
%LPC*%
G36*
X191499Y470499D02*
X191499Y470499D01*
X191499Y473521D01*
X192250Y473210D01*
X193028Y472690D01*
X193690Y472028D01*
X194210Y471250D01*
X194521Y470499D01*
X191499Y470499D01*
G37*
%LPD*%
%LPC*%
G36*
X131499Y470499D02*
X131499Y470499D01*
X131499Y473521D01*
X132250Y473210D01*
X133028Y472690D01*
X133690Y472028D01*
X134210Y471250D01*
X134521Y470499D01*
X131499Y470499D01*
G37*
%LPD*%
%LPC*%
G36*
X216499Y350499D02*
X216499Y350499D01*
X216499Y353521D01*
X217250Y353210D01*
X218028Y352690D01*
X218690Y352028D01*
X219210Y351250D01*
X219521Y350499D01*
X216499Y350499D01*
G37*
%LPD*%
%LPC*%
G36*
X298499Y18499D02*
X298499Y18499D01*
X298499Y21521D01*
X299250Y21210D01*
X300028Y20690D01*
X300690Y20028D01*
X301210Y19250D01*
X301521Y18499D01*
X298499Y18499D01*
G37*
%LPD*%
%LPC*%
G36*
X133499Y8499D02*
X133499Y8499D01*
X133499Y11521D01*
X134250Y11210D01*
X135028Y10690D01*
X135690Y10028D01*
X136210Y9250D01*
X136521Y8499D01*
X133499Y8499D01*
G37*
%LPD*%
%LPC*%
G36*
X188499Y8499D02*
X188499Y8499D01*
X188499Y11521D01*
X189250Y11210D01*
X190028Y10690D01*
X190690Y10028D01*
X191210Y9250D01*
X191521Y8499D01*
X188499Y8499D01*
G37*
%LPD*%
%LPC*%
G36*
X243499Y8499D02*
X243499Y8499D01*
X243499Y11521D01*
X244250Y11210D01*
X245028Y10690D01*
X245690Y10028D01*
X246210Y9250D01*
X246521Y8499D01*
X243499Y8499D01*
G37*
%LPD*%
%LPC*%
G36*
X8499Y435501D02*
X8499Y435501D01*
X11521Y435501D01*
X11210Y434750D01*
X10690Y433972D01*
X10028Y433310D01*
X9250Y432790D01*
X8499Y432479D01*
X8499Y435501D01*
G37*
%LPD*%
%LPC*%
G36*
X210479Y410499D02*
X210479Y410499D01*
X210790Y411250D01*
X211310Y412028D01*
X211972Y412690D01*
X212750Y413210D01*
X213501Y413521D01*
X213501Y410499D01*
X210479Y410499D01*
G37*
%LPD*%
%LPC*%
G36*
X216499Y407501D02*
X216499Y407501D01*
X219521Y407501D01*
X219210Y406750D01*
X218690Y405972D01*
X218028Y405310D01*
X217250Y404790D01*
X216499Y404479D01*
X216499Y407501D01*
G37*
%LPD*%
%LPC*%
G36*
X210479Y395499D02*
X210479Y395499D01*
X210790Y396250D01*
X211310Y397028D01*
X211972Y397690D01*
X212750Y398210D01*
X213501Y398521D01*
X213501Y395499D01*
X210479Y395499D01*
G37*
%LPD*%
%LPC*%
G36*
X307479Y393499D02*
X307479Y393499D01*
X307790Y394250D01*
X308310Y395028D01*
X308972Y395690D01*
X309750Y396210D01*
X310501Y396521D01*
X310501Y393499D01*
X307479Y393499D01*
G37*
%LPD*%
%LPC*%
G36*
X216499Y392501D02*
X216499Y392501D01*
X219521Y392501D01*
X219210Y391750D01*
X218690Y390972D01*
X218028Y390310D01*
X217250Y389790D01*
X216499Y389479D01*
X216499Y392501D01*
G37*
%LPD*%
%LPC*%
G36*
X210479Y380499D02*
X210479Y380499D01*
X210790Y381250D01*
X211310Y382028D01*
X211972Y382690D01*
X212750Y383210D01*
X213501Y383521D01*
X213501Y380499D01*
X210479Y380499D01*
G37*
%LPD*%
%LPC*%
G36*
X8499Y365501D02*
X8499Y365501D01*
X11521Y365501D01*
X11210Y364750D01*
X10690Y363972D01*
X10028Y363310D01*
X9250Y362790D01*
X8499Y362479D01*
X8499Y365501D01*
G37*
%LPD*%
%LPC*%
G36*
X100499Y354501D02*
X100499Y354501D01*
X103521Y354501D01*
X103210Y353750D01*
X102690Y352972D01*
X102028Y352310D01*
X101250Y351790D01*
X100499Y351479D01*
X100499Y354501D01*
G37*
%LPD*%
%LPC*%
G36*
X210479Y350499D02*
X210479Y350499D01*
X210790Y351250D01*
X211310Y352028D01*
X211972Y352690D01*
X212750Y353210D01*
X213501Y353521D01*
X213501Y350499D01*
X210479Y350499D01*
G37*
%LPD*%
%LPC*%
G36*
X216499Y347501D02*
X216499Y347501D01*
X219521Y347501D01*
X219210Y346750D01*
X218690Y345972D01*
X218028Y345310D01*
X217250Y344790D01*
X216499Y344479D01*
X216499Y347501D01*
G37*
%LPD*%
%LPC*%
G36*
X210479Y335499D02*
X210479Y335499D01*
X210790Y336250D01*
X211310Y337028D01*
X211972Y337690D01*
X212750Y338210D01*
X213501Y338521D01*
X213501Y335499D01*
X210479Y335499D01*
G37*
%LPD*%
%LPC*%
G36*
X307479Y333499D02*
X307479Y333499D01*
X307790Y334250D01*
X308310Y335028D01*
X308972Y335690D01*
X309750Y336210D01*
X310501Y336521D01*
X310501Y333499D01*
X307479Y333499D01*
G37*
%LPD*%
%LPC*%
G36*
X165479Y470499D02*
X165479Y470499D01*
X165790Y471250D01*
X166310Y472028D01*
X166972Y472690D01*
X167750Y473210D01*
X168501Y473521D01*
X168501Y470499D01*
X165479Y470499D01*
G37*
%LPD*%
%LPC*%
G36*
X216499Y332501D02*
X216499Y332501D01*
X219521Y332501D01*
X219210Y331750D01*
X218690Y330972D01*
X218028Y330310D01*
X217250Y329790D01*
X216499Y329479D01*
X216499Y332501D01*
G37*
%LPD*%
%LPC*%
G36*
X8499Y310501D02*
X8499Y310501D01*
X11521Y310501D01*
X11210Y309750D01*
X10690Y308972D01*
X10028Y308310D01*
X9250Y307790D01*
X8499Y307479D01*
X8499Y310501D01*
G37*
%LPD*%
%LPC*%
G36*
X307479Y273499D02*
X307479Y273499D01*
X307790Y274250D01*
X308310Y275028D01*
X308972Y275690D01*
X309750Y276210D01*
X310501Y276521D01*
X310501Y273499D01*
X307479Y273499D01*
G37*
%LPD*%
%LPC*%
G36*
X8499Y255501D02*
X8499Y255501D01*
X11521Y255501D01*
X11210Y254750D01*
X10690Y253972D01*
X10028Y253310D01*
X9250Y252790D01*
X8499Y252479D01*
X8499Y255501D01*
G37*
%LPD*%
%LPC*%
G36*
X82479Y238499D02*
X82479Y238499D01*
X82790Y239250D01*
X83310Y240028D01*
X83972Y240690D01*
X84750Y241210D01*
X85501Y241521D01*
X85501Y238499D01*
X82479Y238499D01*
G37*
%LPD*%
%LPC*%
G36*
X227479Y238499D02*
X227479Y238499D01*
X227790Y239250D01*
X228310Y240028D01*
X228972Y240690D01*
X229750Y241210D01*
X230501Y241521D01*
X230501Y238499D01*
X227479Y238499D01*
G37*
%LPD*%
%LPC*%
G36*
X162479Y238499D02*
X162479Y238499D01*
X162790Y239250D01*
X163310Y240028D01*
X163972Y240690D01*
X164750Y241210D01*
X165501Y241521D01*
X165501Y238499D01*
X162479Y238499D01*
G37*
%LPD*%
%LPC*%
G36*
X88499Y235501D02*
X88499Y235501D01*
X91521Y235501D01*
X91210Y234750D01*
X90690Y233972D01*
X90028Y233310D01*
X89250Y232790D01*
X88499Y232479D01*
X88499Y235501D01*
G37*
%LPD*%
%LPC*%
G36*
X233499Y235501D02*
X233499Y235501D01*
X236521Y235501D01*
X236210Y234750D01*
X235690Y233972D01*
X235028Y233310D01*
X234250Y232790D01*
X233499Y232479D01*
X233499Y235501D01*
G37*
%LPD*%
%LPC*%
G36*
X307479Y203499D02*
X307479Y203499D01*
X307790Y204250D01*
X308310Y205028D01*
X308972Y205690D01*
X309750Y206210D01*
X310501Y206521D01*
X310501Y203499D01*
X307479Y203499D01*
G37*
%LPD*%
%LPC*%
G36*
X68499Y535501D02*
X68499Y535501D01*
X71521Y535501D01*
X71210Y534750D01*
X70690Y533972D01*
X70028Y533310D01*
X69250Y532790D01*
X68499Y532479D01*
X68499Y535501D01*
G37*
%LPD*%
%LPC*%
G36*
X202479Y178499D02*
X202479Y178499D01*
X202790Y179250D01*
X203310Y180028D01*
X203972Y180690D01*
X204750Y181210D01*
X205501Y181521D01*
X205501Y178499D01*
X202479Y178499D01*
G37*
%LPD*%
%LPC*%
G36*
X23499Y530501D02*
X23499Y530501D01*
X26521Y530501D01*
X26210Y529750D01*
X25690Y528972D01*
X25028Y528310D01*
X24250Y527790D01*
X23499Y527479D01*
X23499Y530501D01*
G37*
%LPD*%
%LPC*%
G36*
X92479Y173499D02*
X92479Y173499D01*
X92790Y174250D01*
X93310Y175028D01*
X93972Y175690D01*
X94750Y176210D01*
X95501Y176521D01*
X95501Y173499D01*
X92479Y173499D01*
G37*
%LPD*%
%LPC*%
G36*
X208499Y175501D02*
X208499Y175501D01*
X211521Y175501D01*
X211210Y174750D01*
X210690Y173972D01*
X210028Y173310D01*
X209250Y172790D01*
X208499Y172479D01*
X208499Y175501D01*
G37*
%LPD*%
%LPC*%
G36*
X98499Y170501D02*
X98499Y170501D01*
X101521Y170501D01*
X101210Y169750D01*
X100690Y168972D01*
X100028Y168310D01*
X99250Y167790D01*
X98499Y167479D01*
X98499Y170501D01*
G37*
%LPD*%
%LPC*%
G36*
X307479Y143499D02*
X307479Y143499D01*
X307790Y144250D01*
X308310Y145028D01*
X308972Y145690D01*
X309750Y146210D01*
X310501Y146521D01*
X310501Y143499D01*
X307479Y143499D01*
G37*
%LPD*%
%LPC*%
G36*
X8499Y485501D02*
X8499Y485501D01*
X11521Y485501D01*
X11210Y484750D01*
X10690Y483972D01*
X10028Y483310D01*
X9250Y482790D01*
X8499Y482479D01*
X8499Y485501D01*
G37*
%LPD*%
%LPC*%
G36*
X8499Y130501D02*
X8499Y130501D01*
X11521Y130501D01*
X11210Y129750D01*
X10690Y128972D01*
X10028Y128310D01*
X9250Y127790D01*
X8499Y127479D01*
X8499Y130501D01*
G37*
%LPD*%
%LPC*%
G36*
X8499Y190501D02*
X8499Y190501D01*
X11521Y190501D01*
X11210Y189750D01*
X10690Y188972D01*
X10028Y188310D01*
X9250Y187790D01*
X8499Y187479D01*
X8499Y190501D01*
G37*
%LPD*%
%LPC*%
G36*
X145479Y470499D02*
X145479Y470499D01*
X145790Y471250D01*
X146310Y472028D01*
X146972Y472690D01*
X147750Y473210D01*
X148501Y473521D01*
X148501Y470499D01*
X145479Y470499D01*
G37*
%LPD*%
%LPC*%
G36*
X307479Y78499D02*
X307479Y78499D01*
X307790Y79250D01*
X308310Y80028D01*
X308972Y80690D01*
X309750Y81210D01*
X310501Y81521D01*
X310501Y78499D01*
X307479Y78499D01*
G37*
%LPD*%
%LPC*%
G36*
X185479Y470499D02*
X185479Y470499D01*
X185790Y471250D01*
X186310Y472028D01*
X186972Y472690D01*
X187750Y473210D01*
X188501Y473521D01*
X188501Y470499D01*
X185479Y470499D01*
G37*
%LPD*%
%LPC*%
G36*
X125479Y470499D02*
X125479Y470499D01*
X125790Y471250D01*
X126310Y472028D01*
X126972Y472690D01*
X127750Y473210D01*
X128501Y473521D01*
X128501Y470499D01*
X125479Y470499D01*
G37*
%LPD*%
%LPC*%
G36*
X171499Y467501D02*
X171499Y467501D01*
X174521Y467501D01*
X174210Y466750D01*
X173690Y465972D01*
X173028Y465310D01*
X172250Y464790D01*
X171499Y464479D01*
X171499Y467501D01*
G37*
%LPD*%
%LPC*%
G36*
X292479Y18499D02*
X292479Y18499D01*
X292790Y19250D01*
X293310Y20028D01*
X293972Y20690D01*
X294750Y21210D01*
X295501Y21521D01*
X295501Y18499D01*
X292479Y18499D01*
G37*
%LPD*%
%LPC*%
G36*
X191499Y467501D02*
X191499Y467501D01*
X194521Y467501D01*
X194210Y466750D01*
X193690Y465972D01*
X193028Y465310D01*
X192250Y464790D01*
X191499Y464479D01*
X191499Y467501D01*
G37*
%LPD*%
%LPC*%
G36*
X131499Y467501D02*
X131499Y467501D01*
X134521Y467501D01*
X134210Y466750D01*
X133690Y465972D01*
X133028Y465310D01*
X132250Y464790D01*
X131499Y464479D01*
X131499Y467501D01*
G37*
%LPD*%
%LPC*%
G36*
X151499Y467501D02*
X151499Y467501D01*
X154521Y467501D01*
X154210Y466750D01*
X153690Y465972D01*
X153028Y465310D01*
X152250Y464790D01*
X151499Y464479D01*
X151499Y467501D01*
G37*
%LPD*%
%LPC*%
G36*
X237479Y8499D02*
X237479Y8499D01*
X237790Y9250D01*
X238310Y10028D01*
X238972Y10690D01*
X239750Y11210D01*
X240501Y11521D01*
X240501Y8499D01*
X237479Y8499D01*
G37*
%LPD*%
%LPC*%
G36*
X127479Y8499D02*
X127479Y8499D01*
X127790Y9250D01*
X128310Y10028D01*
X128972Y10690D01*
X129750Y11210D01*
X130501Y11521D01*
X130501Y8499D01*
X127479Y8499D01*
G37*
%LPD*%
%LPC*%
G36*
X182479Y8499D02*
X182479Y8499D01*
X182790Y9250D01*
X183310Y10028D01*
X183972Y10690D01*
X184750Y11210D01*
X185501Y11521D01*
X185501Y8499D01*
X182479Y8499D01*
G37*
%LPD*%
%LPC*%
G36*
X187750Y464790D02*
X187750Y464790D01*
X186972Y465310D01*
X186310Y465972D01*
X185790Y466750D01*
X185479Y467501D01*
X188501Y467501D01*
X188501Y464479D01*
X187750Y464790D01*
G37*
%LPD*%
%LPC*%
G36*
X167750Y464790D02*
X167750Y464790D01*
X166972Y465310D01*
X166310Y465972D01*
X165790Y466750D01*
X165479Y467501D01*
X168501Y467501D01*
X168501Y464479D01*
X167750Y464790D01*
G37*
%LPD*%
%LPC*%
G36*
X94750Y167790D02*
X94750Y167790D01*
X93972Y168310D01*
X93310Y168972D01*
X92790Y169750D01*
X92479Y170501D01*
X95501Y170501D01*
X95501Y167479D01*
X94750Y167790D01*
G37*
%LPD*%
%LPC*%
G36*
X96750Y351790D02*
X96750Y351790D01*
X95972Y352310D01*
X95310Y352972D01*
X94790Y353750D01*
X94479Y354501D01*
X97501Y354501D01*
X97501Y351479D01*
X96750Y351790D01*
G37*
%LPD*%
%LPC*%
G36*
X309750Y137790D02*
X309750Y137790D01*
X308972Y138310D01*
X308310Y138972D01*
X307790Y139750D01*
X307479Y140501D01*
X310501Y140501D01*
X310501Y137479D01*
X309750Y137790D01*
G37*
%LPD*%
%LPC*%
G36*
X309750Y387790D02*
X309750Y387790D01*
X308972Y388310D01*
X308310Y388972D01*
X307790Y389750D01*
X307479Y390501D01*
X310501Y390501D01*
X310501Y387479D01*
X309750Y387790D01*
G37*
%LPD*%
%LPC*%
G36*
X212750Y344790D02*
X212750Y344790D01*
X211972Y345310D01*
X211310Y345972D01*
X210790Y346750D01*
X210479Y347501D01*
X213501Y347501D01*
X213501Y344479D01*
X212750Y344790D01*
G37*
%LPD*%
%LPC*%
G36*
X212750Y389790D02*
X212750Y389790D01*
X211972Y390310D01*
X211310Y390972D01*
X210790Y391750D01*
X210479Y392501D01*
X213501Y392501D01*
X213501Y389479D01*
X212750Y389790D01*
G37*
%LPD*%
%LPC*%
G36*
X212750Y329790D02*
X212750Y329790D01*
X211972Y330310D01*
X211310Y330972D01*
X210790Y331750D01*
X210479Y332501D01*
X213501Y332501D01*
X213501Y329479D01*
X212750Y329790D01*
G37*
%LPD*%
%LPC*%
G36*
X229750Y232790D02*
X229750Y232790D01*
X228972Y233310D01*
X228310Y233972D01*
X227790Y234750D01*
X227479Y235501D01*
X230501Y235501D01*
X230501Y232479D01*
X229750Y232790D01*
G37*
%LPD*%
%LPC*%
G36*
X84750Y232790D02*
X84750Y232790D01*
X83972Y233310D01*
X83310Y233972D01*
X82790Y234750D01*
X82479Y235501D01*
X85501Y235501D01*
X85501Y232479D01*
X84750Y232790D01*
G37*
%LPD*%
%LPC*%
G36*
X309750Y267790D02*
X309750Y267790D01*
X308972Y268310D01*
X308310Y268972D01*
X307790Y269750D01*
X307479Y270501D01*
X310501Y270501D01*
X310501Y267479D01*
X309750Y267790D01*
G37*
%LPD*%
%LPC*%
G36*
X309750Y72790D02*
X309750Y72790D01*
X308972Y73310D01*
X308310Y73972D01*
X307790Y74750D01*
X307479Y75501D01*
X310501Y75501D01*
X310501Y72479D01*
X309750Y72790D01*
G37*
%LPD*%
%LPC*%
G36*
X309750Y197790D02*
X309750Y197790D01*
X308972Y198310D01*
X308310Y198972D01*
X307790Y199750D01*
X307479Y200501D01*
X310501Y200501D01*
X310501Y197479D01*
X309750Y197790D01*
G37*
%LPD*%
%LPC*%
G36*
X127750Y464790D02*
X127750Y464790D01*
X126972Y465310D01*
X126310Y465972D01*
X125790Y466750D01*
X125479Y467501D01*
X128501Y467501D01*
X128501Y464479D01*
X127750Y464790D01*
G37*
%LPD*%
%LPC*%
G36*
X64750Y532790D02*
X64750Y532790D01*
X63972Y533310D01*
X63310Y533972D01*
X62790Y534750D01*
X62479Y535501D01*
X65501Y535501D01*
X65501Y532479D01*
X64750Y532790D01*
G37*
%LPD*%
%LPC*%
G36*
X212750Y404790D02*
X212750Y404790D01*
X211972Y405310D01*
X211310Y405972D01*
X210790Y406750D01*
X210479Y407501D01*
X213501Y407501D01*
X213501Y404479D01*
X212750Y404790D01*
G37*
%LPD*%
%LPC*%
G36*
X309750Y327790D02*
X309750Y327790D01*
X308972Y328310D01*
X308310Y328972D01*
X307790Y329750D01*
X307479Y330501D01*
X310501Y330501D01*
X310501Y327479D01*
X309750Y327790D01*
G37*
%LPD*%
%LPC*%
G36*
X244750Y462790D02*
X244750Y462790D01*
X243972Y463310D01*
X243310Y463972D01*
X242790Y464750D01*
X242479Y465501D01*
X245501Y465501D01*
X245501Y462479D01*
X244750Y462790D01*
G37*
%LPD*%
%LPC*%
G36*
X147750Y464790D02*
X147750Y464790D01*
X146972Y465310D01*
X146310Y465972D01*
X145790Y466750D01*
X145479Y467501D01*
X148501Y467501D01*
X148501Y464479D01*
X147750Y464790D01*
G37*
%LPD*%
%LPC*%
G36*
X204750Y172790D02*
X204750Y172790D01*
X203972Y173310D01*
X203310Y173972D01*
X202790Y174750D01*
X202479Y175501D01*
X205501Y175501D01*
X205501Y172479D01*
X204750Y172790D01*
G37*
%LPD*%
D10*
X128250Y147100D03*
X153650Y147100D03*
X179050Y147100D03*
X140950Y121700D03*
X166350Y121700D03*
X191750Y121700D03*
D11*
X222000Y210000D03*
X196600Y210000D03*
X171200Y210000D03*
X145800Y210000D03*
X120400Y210000D03*
X95000Y210000D03*
X35000Y190000D03*
X35000Y215400D03*
X35000Y240800D03*
X35000Y266200D03*
X35000Y145000D03*
X35000Y119600D03*
X35000Y94200D03*
X35000Y440000D03*
X35000Y414600D03*
X35000Y389200D03*
X35000Y363800D03*
X35000Y338400D03*
X285000Y440000D03*
X285000Y414600D03*
X285000Y389200D03*
X285000Y363800D03*
X285000Y338400D03*
X285000Y145000D03*
X285000Y119600D03*
X285000Y94200D03*
X285000Y180000D03*
X285000Y205400D03*
X285000Y230800D03*
X285000Y256200D03*
X285000Y281600D03*
X285000Y307000D03*
D12*
X171200Y210000D02*
X190000Y191200D01*
X190000Y140000D02*
X180000Y130000D01*
X180000Y115000D01*
X175000Y110000D01*
X150000Y110000D01*
X140950Y119050D01*
X140950Y121700D01*
X190000Y140000D02*
X190000Y191200D01*
X158500Y218222D02*
X165000Y225000D01*
X190000Y225000D01*
X196600Y218400D02*
X196600Y210000D01*
X196600Y218400D02*
X190000Y225000D01*
X158500Y151672D02*
X153650Y147100D01*
X158500Y151672D02*
X158500Y218222D01*
X120400Y210000D02*
X120400Y199600D01*
X166350Y130000D02*
X166350Y121700D01*
D13*
X102000Y388000D03*
D12*
X148000Y434000D01*
X210000Y434000D01*
D13*
X210000Y434000D03*
D12*
X141000Y179000D02*
X141000Y140000D01*
X146000Y135000D01*
X161350Y135000D02*
X166350Y130000D01*
X141000Y179000D02*
X120400Y199600D01*
X146000Y135000D02*
X161350Y135000D01*
D13*
X67000Y357000D03*
X99000Y356000D03*
X215000Y334000D03*
X67000Y537000D03*
X22000Y532000D03*
X7000Y487000D03*
X7000Y437000D03*
X7000Y367000D03*
X7000Y312000D03*
X7000Y257000D03*
X7000Y192000D03*
X7000Y132000D03*
X7000Y77000D03*
X77000Y7000D03*
X132000Y7000D03*
X187000Y7000D03*
X242000Y7000D03*
X297000Y17000D03*
X312000Y77000D03*
X312000Y142000D03*
X312000Y202000D03*
X312000Y272000D03*
X312000Y332000D03*
X312000Y392000D03*
X312000Y467000D03*
X247000Y467000D03*
X242000Y537000D03*
X72000Y72000D03*
X97000Y172000D03*
X87000Y237000D03*
X207000Y177000D03*
X167000Y237000D03*
X215000Y349000D03*
X215000Y379000D03*
X215000Y409000D03*
X215000Y394000D03*
X130000Y469000D03*
X150000Y469000D03*
X170000Y469000D03*
X190000Y469000D03*
X232000Y237000D03*
D12*
X56000Y301000D02*
X50000Y295000D01*
X56000Y301000D02*
X63000Y301000D01*
D13*
X63000Y301000D03*
D12*
X50000Y150000D02*
X45000Y145000D01*
X35000Y145000D01*
X50000Y150000D02*
X50000Y295000D01*
D13*
X70000Y268000D03*
D12*
X60000Y258000D01*
X49600Y119600D02*
X35000Y119600D01*
X60000Y130000D02*
X60000Y258000D01*
X60000Y130000D02*
X49600Y119600D01*
D13*
X70000Y255000D03*
D12*
X70000Y120000D01*
X95000Y95000D01*
X259600Y119600D02*
X285000Y119600D01*
X235000Y95000D02*
X95000Y95000D01*
X235000Y95000D02*
X259600Y119600D01*
D13*
X69806Y280000D03*
D12*
X225000Y280000D02*
X240000Y295000D01*
X240000Y335000D01*
X268800Y363800D02*
X285000Y363800D01*
X225000Y280000D02*
X69806Y280000D01*
X240000Y335000D02*
X268800Y363800D01*
D13*
X68000Y318000D03*
D12*
X60000Y326000D01*
X40000Y440000D02*
X35000Y440000D01*
X60000Y420000D02*
X60000Y326000D01*
X60000Y420000D02*
X40000Y440000D01*
D13*
X70000Y370000D03*
D12*
X235000Y370000D01*
X254200Y389200D02*
X285000Y389200D01*
X254200Y389200D02*
X235000Y370000D01*
D13*
X25000Y305000D03*
D14*
X30000Y310000D01*
X200000Y310000D01*
D13*
X200000Y310000D03*
M02*
