G04 EAGLE Gerber RS-274X export*
G75*
%MOMM*%
%FSLAX34Y34*%
%LPD*%
%IN*%
%IPPOS*%
%AMOC8*
5,1,8,0,0,1.08239X$1,22.5*%
G01*
%ADD10C,0.254000*%


D10*
X0Y40000D02*
X152Y36514D01*
X608Y33054D01*
X1363Y29647D01*
X2412Y26319D01*
X3748Y23095D01*
X5359Y20000D01*
X7234Y17057D01*
X9358Y14289D01*
X11716Y11716D01*
X14289Y9358D01*
X17057Y7234D01*
X20000Y5359D01*
X23095Y3748D01*
X26319Y2412D01*
X29647Y1363D01*
X33054Y608D01*
X36514Y152D01*
X40000Y0D01*
X280000Y0D01*
X283583Y258D01*
X287130Y827D01*
X290614Y1703D01*
X294008Y2879D01*
X297286Y4347D01*
X300425Y6095D01*
X303399Y8109D01*
X306186Y10376D01*
X308765Y12876D01*
X311116Y15592D01*
X313222Y18502D01*
X315066Y21585D01*
X316634Y24817D01*
X317915Y28173D01*
X318898Y31628D01*
X319576Y35156D01*
X319944Y38729D01*
X320000Y42321D01*
X320000Y505000D01*
X319848Y508486D01*
X319392Y511946D01*
X318637Y515353D01*
X317588Y518681D01*
X316252Y521905D01*
X314641Y525000D01*
X312766Y527943D01*
X310642Y530712D01*
X308284Y533284D01*
X305712Y535642D01*
X302943Y537766D01*
X300000Y539641D01*
X296905Y541252D01*
X293681Y542588D01*
X290353Y543637D01*
X286946Y544392D01*
X283486Y544848D01*
X280000Y545000D01*
X40000Y545000D01*
X36514Y544848D01*
X33054Y544392D01*
X29647Y543637D01*
X26319Y542588D01*
X23095Y541252D01*
X20000Y539641D01*
X17057Y537766D01*
X14289Y535642D01*
X11716Y533284D01*
X9358Y530712D01*
X7234Y527943D01*
X5359Y525000D01*
X3748Y521905D01*
X2412Y518681D01*
X1363Y515353D01*
X608Y511946D01*
X152Y508486D01*
X0Y505000D01*
X0Y40000D01*
X125450Y57668D02*
X125380Y56606D01*
X125242Y55552D01*
X125034Y54508D01*
X124759Y53480D01*
X124417Y52473D01*
X124009Y51490D01*
X123539Y50536D01*
X123007Y49614D01*
X122416Y48730D01*
X121768Y47886D01*
X121067Y47086D01*
X120314Y46333D01*
X119514Y45632D01*
X118670Y44984D01*
X117786Y44393D01*
X116864Y43861D01*
X115910Y43391D01*
X114927Y42983D01*
X113920Y42641D01*
X112892Y42366D01*
X111848Y42158D01*
X110794Y42020D01*
X109732Y41950D01*
X108668Y41950D01*
X107606Y42020D01*
X106552Y42158D01*
X105508Y42366D01*
X104480Y42641D01*
X103473Y42983D01*
X102490Y43391D01*
X101536Y43861D01*
X100614Y44393D01*
X99730Y44984D01*
X98886Y45632D01*
X98086Y46333D01*
X97333Y47086D01*
X96632Y47886D01*
X95984Y48730D01*
X95393Y49614D01*
X94861Y50536D01*
X94391Y51490D01*
X93983Y52473D01*
X93641Y53480D01*
X93366Y54508D01*
X93158Y55552D01*
X93020Y56606D01*
X92950Y57668D01*
X92950Y58732D01*
X93020Y59794D01*
X93158Y60848D01*
X93366Y61892D01*
X93641Y62920D01*
X93983Y63927D01*
X94391Y64910D01*
X94861Y65864D01*
X95393Y66786D01*
X95984Y67670D01*
X96632Y68514D01*
X97333Y69314D01*
X98086Y70067D01*
X98886Y70768D01*
X99730Y71416D01*
X100614Y72007D01*
X101536Y72539D01*
X102490Y73009D01*
X103473Y73417D01*
X104480Y73759D01*
X105508Y74034D01*
X106552Y74242D01*
X107606Y74380D01*
X108668Y74450D01*
X109732Y74450D01*
X110794Y74380D01*
X111848Y74242D01*
X112892Y74034D01*
X113920Y73759D01*
X114927Y73417D01*
X115910Y73009D01*
X116864Y72539D01*
X117786Y72007D01*
X118670Y71416D01*
X119514Y70768D01*
X120314Y70067D01*
X121067Y69314D01*
X121768Y68514D01*
X122416Y67670D01*
X123007Y66786D01*
X123539Y65864D01*
X124009Y64910D01*
X124417Y63927D01*
X124759Y62920D01*
X125034Y61892D01*
X125242Y60848D01*
X125380Y59794D01*
X125450Y58732D01*
X125450Y57668D01*
X227050Y57668D02*
X226980Y56606D01*
X226842Y55552D01*
X226634Y54508D01*
X226359Y53480D01*
X226017Y52473D01*
X225609Y51490D01*
X225139Y50536D01*
X224607Y49614D01*
X224016Y48730D01*
X223368Y47886D01*
X222667Y47086D01*
X221914Y46333D01*
X221114Y45632D01*
X220270Y44984D01*
X219386Y44393D01*
X218464Y43861D01*
X217510Y43391D01*
X216527Y42983D01*
X215520Y42641D01*
X214492Y42366D01*
X213448Y42158D01*
X212394Y42020D01*
X211332Y41950D01*
X210268Y41950D01*
X209206Y42020D01*
X208152Y42158D01*
X207108Y42366D01*
X206080Y42641D01*
X205073Y42983D01*
X204090Y43391D01*
X203136Y43861D01*
X202214Y44393D01*
X201330Y44984D01*
X200486Y45632D01*
X199686Y46333D01*
X198933Y47086D01*
X198232Y47886D01*
X197584Y48730D01*
X196993Y49614D01*
X196461Y50536D01*
X195991Y51490D01*
X195583Y52473D01*
X195241Y53480D01*
X194966Y54508D01*
X194758Y55552D01*
X194620Y56606D01*
X194550Y57668D01*
X194550Y58732D01*
X194620Y59794D01*
X194758Y60848D01*
X194966Y61892D01*
X195241Y62920D01*
X195583Y63927D01*
X195991Y64910D01*
X196461Y65864D01*
X196993Y66786D01*
X197584Y67670D01*
X198232Y68514D01*
X198933Y69314D01*
X199686Y70067D01*
X200486Y70768D01*
X201330Y71416D01*
X202214Y72007D01*
X203136Y72539D01*
X204090Y73009D01*
X205073Y73417D01*
X206080Y73759D01*
X207108Y74034D01*
X208152Y74242D01*
X209206Y74380D01*
X210268Y74450D01*
X211332Y74450D01*
X212394Y74380D01*
X213448Y74242D01*
X214492Y74034D01*
X215520Y73759D01*
X216527Y73417D01*
X217510Y73009D01*
X218464Y72539D01*
X219386Y72007D01*
X220270Y71416D01*
X221114Y70768D01*
X221914Y70067D01*
X222667Y69314D01*
X223368Y68514D01*
X224016Y67670D01*
X224607Y66786D01*
X225139Y65864D01*
X225609Y64910D01*
X226017Y63927D01*
X226359Y62920D01*
X226634Y61892D01*
X226842Y60848D01*
X226980Y59794D01*
X227050Y58732D01*
X227050Y57668D01*
X56000Y39476D02*
X55932Y38431D01*
X55795Y37392D01*
X55590Y36365D01*
X55319Y35353D01*
X54983Y34361D01*
X54582Y33393D01*
X54118Y32454D01*
X53595Y31546D01*
X53013Y30675D01*
X52375Y29844D01*
X51684Y29057D01*
X50943Y28316D01*
X50156Y27625D01*
X49325Y26988D01*
X48454Y26406D01*
X47546Y25882D01*
X46607Y25418D01*
X45639Y25017D01*
X44647Y24681D01*
X43635Y24410D01*
X42608Y24205D01*
X41569Y24069D01*
X40524Y24000D01*
X39476Y24000D01*
X38431Y24069D01*
X37392Y24205D01*
X36365Y24410D01*
X35353Y24681D01*
X34361Y25017D01*
X33393Y25418D01*
X32454Y25882D01*
X31546Y26406D01*
X30675Y26988D01*
X29844Y27625D01*
X29057Y28316D01*
X28316Y29057D01*
X27625Y29844D01*
X26988Y30675D01*
X26406Y31546D01*
X25882Y32454D01*
X25418Y33393D01*
X25017Y34361D01*
X24681Y35353D01*
X24410Y36365D01*
X24205Y37392D01*
X24069Y38431D01*
X24000Y39476D01*
X24000Y40524D01*
X24069Y41569D01*
X24205Y42608D01*
X24410Y43635D01*
X24681Y44647D01*
X25017Y45639D01*
X25418Y46607D01*
X25882Y47546D01*
X26406Y48454D01*
X26988Y49325D01*
X27625Y50156D01*
X28316Y50943D01*
X29057Y51684D01*
X29844Y52375D01*
X30675Y53013D01*
X31546Y53595D01*
X32454Y54118D01*
X33393Y54582D01*
X34361Y54983D01*
X35353Y55319D01*
X36365Y55590D01*
X37392Y55795D01*
X38431Y55932D01*
X39476Y56000D01*
X40524Y56000D01*
X41569Y55932D01*
X42608Y55795D01*
X43635Y55590D01*
X44647Y55319D01*
X45639Y54983D01*
X46607Y54582D01*
X47546Y54118D01*
X48454Y53595D01*
X49325Y53013D01*
X50156Y52375D01*
X50943Y51684D01*
X51684Y50943D01*
X52375Y50156D01*
X53013Y49325D01*
X53595Y48454D01*
X54118Y47546D01*
X54582Y46607D01*
X54983Y45639D01*
X55319Y44647D01*
X55590Y43635D01*
X55795Y42608D01*
X55932Y41569D01*
X56000Y40524D01*
X56000Y39476D01*
X296000Y504476D02*
X295932Y503431D01*
X295795Y502392D01*
X295590Y501365D01*
X295319Y500353D01*
X294983Y499361D01*
X294582Y498393D01*
X294118Y497454D01*
X293595Y496546D01*
X293013Y495675D01*
X292375Y494844D01*
X291684Y494057D01*
X290943Y493316D01*
X290156Y492625D01*
X289325Y491988D01*
X288454Y491406D01*
X287546Y490882D01*
X286607Y490418D01*
X285639Y490017D01*
X284647Y489681D01*
X283635Y489410D01*
X282608Y489205D01*
X281569Y489069D01*
X280524Y489000D01*
X279476Y489000D01*
X278431Y489069D01*
X277392Y489205D01*
X276365Y489410D01*
X275353Y489681D01*
X274361Y490017D01*
X273393Y490418D01*
X272454Y490882D01*
X271546Y491406D01*
X270675Y491988D01*
X269844Y492625D01*
X269057Y493316D01*
X268316Y494057D01*
X267625Y494844D01*
X266988Y495675D01*
X266406Y496546D01*
X265882Y497454D01*
X265418Y498393D01*
X265017Y499361D01*
X264681Y500353D01*
X264410Y501365D01*
X264205Y502392D01*
X264069Y503431D01*
X264000Y504476D01*
X264000Y505524D01*
X264069Y506569D01*
X264205Y507608D01*
X264410Y508635D01*
X264681Y509647D01*
X265017Y510639D01*
X265418Y511607D01*
X265882Y512546D01*
X266406Y513454D01*
X266988Y514325D01*
X267625Y515156D01*
X268316Y515943D01*
X269057Y516684D01*
X269844Y517375D01*
X270675Y518013D01*
X271546Y518595D01*
X272454Y519118D01*
X273393Y519582D01*
X274361Y519983D01*
X275353Y520319D01*
X276365Y520590D01*
X277392Y520795D01*
X278431Y520932D01*
X279476Y521000D01*
X280524Y521000D01*
X281569Y520932D01*
X282608Y520795D01*
X283635Y520590D01*
X284647Y520319D01*
X285639Y519983D01*
X286607Y519582D01*
X287546Y519118D01*
X288454Y518595D01*
X289325Y518013D01*
X290156Y517375D01*
X290943Y516684D01*
X291684Y515943D01*
X292375Y515156D01*
X293013Y514325D01*
X293595Y513454D01*
X294118Y512546D01*
X294582Y511607D01*
X294983Y510639D01*
X295319Y509647D01*
X295590Y508635D01*
X295795Y507608D01*
X295932Y506569D01*
X296000Y505524D01*
X296000Y504476D01*
M02*
