G04 EAGLE Gerber RS-274X export*
G75*
%MOMM*%
%FSLAX34Y34*%
%LPD*%
%INSoldermask Top*%
%IPPOS*%
%AMOC8*
5,1,8,0,0,1.08239X$1,22.5*%
G01*
%ADD10R,2.001519X1.171703*%
%ADD11C,1.451600*%
%ADD12C,3.351600*%
%ADD13C,1.981200*%
%ADD14C,3.301600*%


D10*
X84800Y445740D03*
X84800Y331440D03*
X84800Y318740D03*
X84800Y306040D03*
X84800Y293340D03*
X84800Y280640D03*
X84800Y267940D03*
X84800Y255240D03*
X231200Y255240D03*
X231200Y267940D03*
X231200Y280640D03*
X84800Y433040D03*
X231200Y293340D03*
X231200Y306040D03*
X231200Y318740D03*
X231200Y331440D03*
X231200Y344140D03*
X231200Y356840D03*
X231200Y369540D03*
X231200Y382240D03*
X231200Y394940D03*
X231200Y407640D03*
X84800Y420340D03*
X231200Y420340D03*
X231200Y433040D03*
X231200Y445740D03*
X84800Y407640D03*
X84800Y394940D03*
X84800Y382240D03*
X84800Y369540D03*
X84800Y356840D03*
X84800Y344140D03*
D11*
X128250Y147100D03*
X153650Y147100D03*
X179050Y147100D03*
X140950Y121700D03*
X166350Y121700D03*
X191750Y121700D03*
D12*
X109200Y58200D03*
X210800Y58200D03*
D13*
X222000Y210000D03*
X196600Y210000D03*
X171200Y210000D03*
X145800Y210000D03*
X120400Y210000D03*
X95000Y210000D03*
X35000Y190000D03*
X35000Y215400D03*
X35000Y240800D03*
X35000Y266200D03*
X35000Y145000D03*
X35000Y119600D03*
X35000Y94200D03*
X35000Y440000D03*
X35000Y414600D03*
X35000Y389200D03*
X35000Y363800D03*
X35000Y338400D03*
X285000Y440000D03*
X285000Y414600D03*
X285000Y389200D03*
X285000Y363800D03*
X285000Y338400D03*
X285000Y145000D03*
X285000Y119600D03*
X285000Y94200D03*
X285000Y180000D03*
X285000Y205400D03*
X285000Y230800D03*
X285000Y256200D03*
X285000Y281600D03*
X285000Y307000D03*
D14*
X40000Y40000D03*
X280000Y505000D03*
M02*
