M48
;GenerationSoftware,Autodesk,EAGLE,9.5.2*%
;CreationDate,2020-04-03T14:53:18Z*%
FMAT,2
ICI,OFF
METRIC,TZ,000.000
T5C0.350
T4C0.900
T3C1.016
T2C3.200
T1C3.250
%
G90
M71
T1
X10920Y5820
X21080Y5820
T2
X28000Y50500
X4000Y4000
T3
X28500Y38920
X3500Y14500
X28500Y20540
X28500Y23080
X28500Y25620
X28500Y28160
X28500Y30700
X22200Y21000
X19660Y21000
X17120Y21000
X14580Y21000
X12040Y21000
X9500Y21000
X3500Y19000
X3500Y21540
X3500Y24080
X3500Y26620
X28500Y18000
X3500Y11960
X3500Y9420
X3500Y44000
X3500Y41460
X3500Y38920
X3500Y36380
X3500Y33840
X28500Y44000
X28500Y41460
X28500Y36380
X28500Y33840
X28500Y14500
X28500Y11960
X28500Y9420
T4
X12825Y14710
X15365Y14710
X14095Y12170
X16635Y12170
X19175Y12170
X17905Y14710
T5
X23200Y23700
X6300Y30100
X7000Y26800
X7000Y25500
X700Y25700
X6800Y31800
X7000Y37000
X2500Y30500
X20000Y31000
X10200Y38800
X21000Y43400
X6700Y35700
X9900Y35600
X21500Y33400
X6700Y53700
X6981Y28000
X2200Y53200
X700Y48700
X700Y43700
X700Y36700
X700Y31200
X700Y19200
X700Y13200
X700Y7700
X7700Y700
X13200Y700
X18700Y700
X24200Y700
X29700Y1700
X31200Y7700
X31200Y14200
X31200Y20200
X31200Y27200
X31200Y33200
X31200Y39200
X31200Y46700
X24700Y46700
X24200Y53700
X7200Y7200
X21500Y37900
X9700Y17200
X8700Y23700
X20700Y17700
X16700Y23700
X21500Y34900
X21500Y40900
X21500Y39400
X13000Y46900
X15000Y46900
X17000Y46900
X19000Y46900
M30